<svg xmlns="http://www.w3.org/2000/svg" xmlns:xlink="http://www.w3.org/1999/xlink" width="2000" zoomAndPan="magnify" viewBox="0 0 1500 1499.999933" height="2000" preserveAspectRatio="xMidYMid meet" version="1.0"><defs><clipPath id="d6c9be94ec"><path d="M 199 235 L 1301 235 L 1301 926.425781 L 199 926.425781 Z M 199 235 " clip-rule="nonzero"/></clipPath><clipPath id="b8f6778843"><path d="M 940.4375 280.957031 L 1042.4375 280.957031 L 1042.4375 382.957031 L 940.4375 382.957031 Z M 940.4375 280.957031 " clip-rule="nonzero"/></clipPath><clipPath id="35d4cc8382"><path d="M 861.675781 695.398438 L 963.675781 695.398438 L 963.675781 797.398438 L 861.675781 797.398438 Z M 861.675781 695.398438 " clip-rule="nonzero"/></clipPath><clipPath id="ec473b1e90"><path d="M 801.273438 392.632812 L 903.273438 392.632812 L 903.273438 494.632812 L 801.273438 494.632812 Z M 801.273438 392.632812 " clip-rule="nonzero"/></clipPath><clipPath id="ae14cdde99"><path d="M 1079.605469 402.039062 L 1181.605469 402.039062 L 1181.605469 504.039062 L 1079.605469 504.039062 Z M 1079.605469 402.039062 " clip-rule="nonzero"/></clipPath><clipPath id="59c8fcbb1b"><path d="M 1079.605469 552.527344 L 1181.605469 552.527344 L 1181.605469 654.527344 L 1079.605469 654.527344 Z M 1079.605469 552.527344 " clip-rule="nonzero"/></clipPath><clipPath id="8f0f9af0d9"><path d="M 1015.085938 700.101562 L 1117.085938 700.101562 L 1117.085938 802.101562 L 1015.085938 802.101562 Z M 1015.085938 700.101562 " clip-rule="nonzero"/></clipPath><clipPath id="8af4d7d73b"><path d="M 801.273438 552.527344 L 903.273438 552.527344 L 903.273438 654.527344 L 801.273438 654.527344 Z M 801.273438 552.527344 " clip-rule="nonzero"/></clipPath></defs><path fill="#212121" d="M 1268.71875 920.171875 L 231.277344 920.171875 C 217.238281 920.171875 205.753906 908.6875 205.753906 894.652344 L 205.753906 361.253906 C 205.753906 347.21875 217.238281 335.734375 231.277344 335.734375 L 1268.71875 335.734375 C 1282.757812 335.734375 1294.242188 347.21875 1294.242188 361.253906 L 1294.242188 894.652344 C 1294.242188 908.6875 1282.757812 920.171875 1268.71875 920.171875 Z M 1268.71875 920.171875 " fill-opacity="1" fill-rule="nonzero"/><path fill="#ffffff" d="M 1259.785156 314.042969 C 1259.785156 516.9375 1259.785156 909.964844 1259.785156 909.964844 C 1259.785156 909.964844 1165.359375 888.273438 1003.296875 885.71875 C 876.964844 883.167969 742.980469 917.621094 742.980469 917.621094 C 742.980469 917.621094 667.691406 888.273438 509.457031 883.167969 C 347.398438 878.0625 240.207031 913.792969 240.207031 913.792969 C 240.207031 913.792969 240.207031 516.9375 240.207031 314.042969 C 249.140625 311.488281 260.625 307.660156 273.386719 305.109375 C 273.386719 297.453125 273.386719 289.796875 273.386719 282.140625 C 324.429688 266.828125 406.097656 246.410156 508.183594 246.410156 C 614.097656 246.410156 698.316406 265.550781 749.359375 282.140625 C 749.359375 282.140625 882.070312 246.410156 985.433594 246.410156 C 1091.347656 246.410156 1175.566406 265.550781 1226.609375 282.140625 C 1226.609375 289.796875 1226.609375 297.453125 1226.609375 305.109375 C 1239.371094 307.660156 1249.578125 311.488281 1259.785156 314.042969 Z M 1259.785156 314.042969 " fill-opacity="1" fill-rule="nonzero"/><path fill="#ceb99e" d="M 685.554688 641.992188 C 685.554688 648.371094 681.726562 650.921875 677.898438 644.542969 L 649.828125 611.363281 C 644.722656 606.261719 637.066406 604.984375 631.960938 610.089844 L 597.507812 638.164062 C 592.402344 641.992188 587.300781 640.714844 587.300781 633.058594 L 587.300781 252.789062 C 587.300781 245.132812 592.402344 241.304688 600.058594 242.582031 L 675.347656 256.617188 C 681.726562 257.894531 688.109375 264.273438 688.109375 271.929688 Z M 685.554688 641.992188 " fill-opacity="1" fill-rule="nonzero"/><g clip-path="url(#d6c9be94ec)"><path fill="#3e046b" d="M 1268.71875 329.355469 L 1266.167969 329.355469 L 1266.167969 314.042969 C 1266.167969 311.488281 1264.890625 308.9375 1261.0625 307.660156 C 1250.855469 305.109375 1241.921875 302.558594 1231.714844 300.003906 L 1231.714844 282.140625 C 1231.714844 279.585938 1230.4375 277.035156 1226.609375 275.757812 C 1150.046875 251.515625 1068.375 240.03125 985.433594 240.03125 C 931.835938 240.03125 870.585938 250.238281 828.476562 257.894531 C 781.261719 266.828125 759.566406 271.929688 750.636719 275.757812 C 731.496094 269.378906 711.078125 264.273438 690.660156 260.445312 C 688.109375 255.34375 681.726562 251.515625 676.625 250.238281 L 601.335938 236.203125 C 596.230469 234.925781 591.128906 236.203125 587.300781 240.03125 C 586.023438 241.304688 584.746094 242.582031 583.472656 243.859375 C 559.226562 241.304688 536.257812 240.03125 512.011719 240.03125 C 510.734375 240.03125 509.457031 240.03125 509.457031 240.03125 C 427.789062 240.03125 347.398438 252.789062 270.835938 275.757812 C 268.28125 277.035156 267.007812 279.585938 267.007812 282.140625 L 267.007812 300.003906 C 256.796875 302.558594 247.863281 305.109375 237.65625 307.660156 C 235.105469 308.9375 233.828125 311.488281 233.828125 314.042969 L 233.828125 329.355469 L 231.277344 329.355469 C 213.410156 329.355469 199.375 343.390625 199.375 361.253906 L 199.375 894.652344 C 199.375 912.515625 213.410156 926.554688 231.277344 926.554688 L 1268.71875 926.554688 C 1286.585938 926.554688 1300.621094 912.515625 1300.621094 894.652344 L 1300.621094 361.253906 C 1300.621094 343.390625 1286.585938 329.355469 1268.71875 329.355469 Z M 1266.167969 335.734375 L 1266.167969 330.628906 C 1267.441406 331.90625 1267.441406 334.457031 1266.167969 335.734375 Z M 1230.4375 885.71875 C 1231.714844 884.445312 1232.988281 883.167969 1232.988281 880.617188 L 1232.988281 312.765625 C 1239.371094 314.042969 1247.027344 316.59375 1253.40625 317.871094 L 1253.40625 901.03125 C 1227.886719 895.929688 1137.285156 880.617188 1003.296875 878.0625 C 901.210938 876.789062 794.023438 898.480469 755.738281 906.136719 L 755.738281 892.101562 C 787.640625 884.445312 889.726562 861.472656 986.707031 862.75 C 1134.730469 865.300781 1224.058594 886.996094 1224.058594 886.996094 C 1226.609375 886.996094 1229.160156 886.996094 1230.4375 885.71875 Z M 1249.578125 913.792969 L 787.640625 913.792969 C 837.410156 903.585938 922.90625 889.546875 1004.574219 890.824219 C 1136.007812 893.375 1224.058594 908.6875 1249.578125 913.792969 Z M 985.433594 252.789062 C 986.707031 252.789062 987.984375 252.789062 987.984375 252.789062 C 1067.101562 252.789062 1144.941406 264.273438 1220.230469 287.242188 L 1220.230469 872.960938 C 1194.707031 867.855469 1111.761719 852.542969 987.984375 849.988281 C 892.277344 848.714844 792.746094 870.40625 757.015625 878.0625 L 757.015625 287.242188 C 757.015625 287.242188 757.015625 287.242188 757.015625 285.96875 C 779.984375 280.863281 894.832031 252.789062 985.433594 252.789062 Z M 593.679688 252.789062 C 593.679688 251.515625 593.679688 250.238281 594.957031 248.960938 C 596.230469 247.6875 597.507812 247.6875 598.785156 247.6875 L 674.070312 261.722656 C 677.898438 263 681.726562 266.828125 681.726562 270.65625 L 679.175781 636.886719 L 654.929688 607.535156 C 651.101562 602.433594 646 601.15625 639.617188 601.15625 C 635.789062 601.15625 630.683594 602.433594 626.855469 604.984375 L 592.402344 633.058594 L 592.402344 252.789062 Z M 279.765625 287.242188 C 353.777344 265.550781 430.34375 254.066406 509.457031 252.789062 C 533.703125 252.789062 557.949219 254.066406 582.195312 255.34375 L 582.195312 633.058594 C 582.195312 641.992188 587.300781 644.542969 588.574219 645.820312 C 591.128906 647.09375 596.230469 648.371094 602.613281 643.265625 L 637.066406 615.195312 C 639.617188 612.640625 643.445312 613.917969 646 616.46875 L 672.796875 649.648438 C 676.625 654.75 680.453125 654.75 683.003906 654.75 C 684.28125 654.75 685.554688 654.75 685.554688 654.75 C 688.109375 653.476562 691.9375 650.921875 691.9375 643.265625 L 694.488281 275.757812 C 711.078125 279.585938 727.667969 283.414062 744.253906 288.519531 C 744.253906 288.519531 744.253906 288.519531 744.253906 289.796875 L 744.253906 883.167969 C 730.21875 878.0625 660.035156 853.816406 526.046875 849.988281 C 515.839844 849.988281 505.628906 849.988281 495.421875 849.988281 C 384.402344 849.988281 304.011719 871.683594 279.765625 879.339844 Z M 246.589844 319.144531 C 252.96875 316.59375 260.625 315.316406 267.007812 314.042969 L 267.007812 885.71875 C 267.007812 888.273438 268.28125 889.546875 269.558594 890.824219 C 270.835938 892.101562 273.386719 892.101562 275.9375 892.101562 C 277.214844 892.101562 378.023438 856.371094 526.046875 861.472656 C 670.242188 866.578125 741.703125 894.652344 741.703125 895.929688 C 742.980469 895.929688 742.980469 895.929688 744.253906 895.929688 L 744.253906 912.515625 C 731.496094 907.414062 656.207031 883.167969 510.734375 878.0625 C 499.25 878.0625 489.042969 878.0625 478.832031 878.0625 C 360.160156 878.0625 273.386719 899.757812 246.589844 907.414062 Z M 709.800781 913.792969 L 260.625 913.792969 C 298.90625 903.585938 389.507812 885.71875 509.457031 889.546875 C 607.714844 892.101562 674.070312 904.859375 709.800781 913.792969 Z M 212.136719 894.652344 L 212.136719 361.253906 C 212.136719 351.046875 221.066406 342.113281 231.277344 342.113281 L 233.828125 342.113281 L 233.828125 913.792969 C 233.828125 913.792969 233.828125 913.792969 233.828125 915.070312 L 231.277344 915.070312 C 219.792969 913.792969 212.136719 906.136719 212.136719 894.652344 Z M 1287.859375 894.652344 C 1287.859375 904.859375 1278.929688 913.792969 1268.71875 913.792969 L 1264.890625 913.792969 C 1266.167969 912.515625 1267.441406 911.242188 1267.441406 909.964844 L 1267.441406 342.113281 L 1269.996094 342.113281 C 1280.203125 342.113281 1289.136719 351.046875 1289.136719 361.253906 L 1289.136719 894.652344 Z M 1287.859375 894.652344 " fill-opacity="1" fill-rule="nonzero"/></g><g clip-path="url(#b8f6778843)"><path fill="#8b0529" d="M 1042.707031 332.089844 C 1042.707031 333.765625 1042.625 335.4375 1042.460938 337.101562 C 1042.296875 338.769531 1042.050781 340.425781 1041.726562 342.066406 C 1041.398438 343.710938 1040.992188 345.332031 1040.507812 346.933594 C 1040.019531 348.535156 1039.457031 350.113281 1038.816406 351.660156 C 1038.175781 353.207031 1037.460938 354.71875 1036.671875 356.195312 C 1035.882812 357.671875 1035.019531 359.105469 1034.089844 360.5 C 1033.160156 361.890625 1032.164062 363.234375 1031.101562 364.53125 C 1030.039062 365.824219 1028.914062 367.0625 1027.730469 368.25 C 1026.546875 369.433594 1025.308594 370.554688 1024.011719 371.617188 C 1022.71875 372.679688 1021.375 373.675781 1019.984375 374.609375 C 1018.589844 375.539062 1017.15625 376.398438 1015.679688 377.1875 C 1014.203125 377.976562 1012.6875 378.691406 1011.140625 379.332031 C 1009.59375 379.972656 1008.019531 380.539062 1006.417969 381.023438 C 1004.816406 381.511719 1003.191406 381.917969 1001.550781 382.242188 C 999.90625 382.570312 998.253906 382.816406 996.585938 382.980469 C 994.917969 383.144531 993.25 383.226562 991.574219 383.226562 C 989.898438 383.226562 988.226562 383.144531 986.5625 382.980469 C 984.894531 382.816406 983.238281 382.570312 981.597656 382.242188 C 979.957031 381.917969 978.332031 381.511719 976.730469 381.023438 C 975.128906 380.539062 973.550781 379.972656 972.003906 379.332031 C 970.457031 378.691406 968.945312 377.976562 967.46875 377.1875 C 965.992188 376.398438 964.558594 375.539062 963.164062 374.609375 C 961.773438 373.675781 960.429688 372.679688 959.132812 371.617188 C 957.839844 370.554688 956.601562 369.433594 955.414062 368.25 C 954.230469 367.0625 953.109375 365.824219 952.046875 364.53125 C 950.984375 363.234375 949.988281 361.890625 949.054688 360.5 C 948.125 359.105469 947.265625 357.671875 946.476562 356.195312 C 945.6875 354.71875 944.972656 353.207031 944.332031 351.660156 C 943.691406 350.113281 943.125 348.535156 942.640625 346.933594 C 942.15625 345.332031 941.746094 343.710938 941.421875 342.066406 C 941.09375 340.425781 940.847656 338.769531 940.683594 337.101562 C 940.519531 335.4375 940.4375 333.765625 940.4375 332.089844 C 940.4375 330.417969 940.519531 328.746094 940.683594 327.078125 C 940.847656 325.410156 941.09375 323.757812 941.421875 322.113281 C 941.746094 320.472656 942.15625 318.851562 942.640625 317.246094 C 943.125 315.644531 943.691406 314.070312 944.332031 312.523438 C 944.972656 310.976562 945.6875 309.464844 946.476562 307.984375 C 947.265625 306.507812 948.125 305.074219 949.054688 303.683594 C 949.988281 302.289062 950.984375 300.945312 952.046875 299.652344 C 953.109375 298.355469 954.230469 297.117188 955.414062 295.933594 C 956.601562 294.75 957.839844 293.625 959.132812 292.5625 C 960.429688 291.5 961.773438 290.503906 963.164062 289.574219 C 964.558594 288.644531 965.992188 287.785156 967.46875 286.992188 C 968.945312 286.203125 970.457031 285.488281 972.003906 284.847656 C 973.550781 284.207031 975.128906 283.644531 976.730469 283.15625 C 978.332031 282.671875 979.957031 282.265625 981.597656 281.9375 C 983.238281 281.613281 984.894531 281.367188 986.5625 281.203125 C 988.226562 281.039062 989.898438 280.957031 991.574219 280.957031 C 993.25 280.957031 994.917969 281.039062 996.585938 281.203125 C 998.253906 281.367188 999.90625 281.613281 1001.550781 281.9375 C 1003.191406 282.265625 1004.816406 282.671875 1006.417969 283.15625 C 1008.019531 283.644531 1009.59375 284.207031 1011.140625 284.847656 C 1012.6875 285.488281 1014.203125 286.203125 1015.679688 286.992188 C 1017.15625 287.785156 1018.589844 288.644531 1019.984375 289.574219 C 1021.375 290.503906 1022.71875 291.5 1024.011719 292.5625 C 1025.308594 293.625 1026.546875 294.75 1027.730469 295.933594 C 1028.914062 297.117188 1030.039062 298.355469 1031.101562 299.652344 C 1032.164062 300.945312 1033.160156 302.289062 1034.089844 303.683594 C 1035.019531 305.074219 1035.882812 306.507812 1036.671875 307.984375 C 1037.460938 309.464844 1038.175781 310.976562 1038.816406 312.523438 C 1039.457031 314.070312 1040.019531 315.644531 1040.507812 317.246094 C 1040.992188 318.851562 1041.398438 320.472656 1041.726562 322.113281 C 1042.050781 323.757812 1042.296875 325.410156 1042.460938 327.078125 C 1042.625 328.746094 1042.707031 330.417969 1042.707031 332.089844 Z M 1042.707031 332.089844 " fill-opacity="1" fill-rule="nonzero"/></g><path fill="#212121" d="M 991.574219 378.347656 C 966.042969 378.347656 945.316406 357.621094 945.316406 332.089844 C 945.316406 306.5625 966.042969 285.832031 991.574219 285.832031 C 1017.101562 285.832031 1037.832031 306.5625 1037.832031 332.089844 C 1037.832031 357.621094 1017.101562 378.347656 991.574219 378.347656 Z M 991.574219 286.976562 C 966.652344 286.976562 946.460938 307.171875 946.460938 332.089844 C 946.460938 357.011719 966.730469 377.207031 991.574219 377.207031 C 1016.492188 377.207031 1036.6875 356.933594 1036.6875 332.089844 C 1036.6875 307.171875 1016.492188 286.976562 991.574219 286.976562 Z M 991.574219 286.976562 " fill-opacity="1" fill-rule="nonzero"/><g clip-path="url(#35d4cc8382)"><path fill="#8b0529" d="M 963.945312 746.535156 C 963.945312 748.210938 963.863281 749.878906 963.699219 751.546875 C 963.535156 753.214844 963.289062 754.867188 962.964844 756.511719 C 962.636719 758.152344 962.230469 759.773438 961.746094 761.378906 C 961.257812 762.980469 960.695312 764.554688 960.054688 766.101562 C 959.414062 767.648438 958.699219 769.160156 957.910156 770.640625 C 957.121094 772.117188 956.257812 773.550781 955.328125 774.941406 C 954.398438 776.335938 953.402344 777.679688 952.339844 778.972656 C 951.277344 780.269531 950.152344 781.507812 948.96875 782.691406 C 947.785156 783.875 946.546875 785 945.25 786.0625 C 943.957031 787.125 942.613281 788.121094 941.222656 789.050781 C 939.828125 789.980469 938.394531 790.839844 936.917969 791.632812 C 935.441406 792.421875 933.925781 793.136719 932.378906 793.777344 C 930.832031 794.417969 929.257812 794.980469 927.65625 795.46875 C 926.054688 795.953125 924.429688 796.359375 922.789062 796.6875 C 921.144531 797.011719 919.492188 797.257812 917.824219 797.421875 C 916.15625 797.585938 914.488281 797.667969 912.8125 797.667969 C 911.136719 797.667969 909.464844 797.585938 907.800781 797.421875 C 906.132812 797.257812 904.476562 797.011719 902.835938 796.6875 C 901.195312 796.359375 899.570312 795.953125 897.96875 795.46875 C 896.367188 794.980469 894.789062 794.417969 893.242188 793.777344 C 891.695312 793.136719 890.183594 792.421875 888.707031 791.632812 C 887.230469 790.839844 885.796875 789.980469 884.402344 789.050781 C 883.011719 788.121094 881.667969 787.125 880.371094 786.0625 C 879.078125 785 877.839844 783.875 876.652344 782.691406 C 875.46875 781.507812 874.347656 780.269531 873.285156 778.972656 C 872.222656 777.679688 871.226562 776.335938 870.292969 774.941406 C 869.363281 773.550781 868.503906 772.117188 867.714844 770.640625 C 866.925781 769.160156 866.210938 767.648438 865.570312 766.101562 C 864.929688 764.554688 864.363281 762.980469 863.878906 761.378906 C 863.394531 759.773438 862.988281 758.152344 862.660156 756.511719 C 862.332031 754.867188 862.085938 753.214844 861.921875 751.546875 C 861.757812 749.878906 861.675781 748.210938 861.675781 746.535156 C 861.675781 744.859375 861.757812 743.1875 861.921875 741.523438 C 862.085938 739.855469 862.332031 738.199219 862.660156 736.558594 C 862.988281 734.914062 863.394531 733.292969 863.878906 731.691406 C 864.363281 730.089844 864.929688 728.511719 865.570312 726.964844 C 866.210938 725.417969 866.925781 723.90625 867.714844 722.429688 C 868.503906 720.953125 869.363281 719.519531 870.292969 718.125 C 871.226562 716.734375 872.222656 715.390625 873.285156 714.09375 C 874.347656 712.800781 875.46875 711.5625 876.652344 710.375 C 877.839844 709.191406 879.078125 708.070312 880.371094 707.007812 C 881.667969 705.945312 883.011719 704.949219 884.402344 704.015625 C 885.796875 703.085938 887.230469 702.226562 888.707031 701.4375 C 890.183594 700.648438 891.695312 699.933594 893.242188 699.292969 C 894.789062 698.652344 896.367188 698.085938 897.96875 697.601562 C 899.570312 697.117188 901.195312 696.707031 902.835938 696.382812 C 904.476562 696.054688 906.132812 695.808594 907.800781 695.644531 C 909.464844 695.480469 911.136719 695.398438 912.8125 695.398438 C 914.488281 695.398438 916.15625 695.480469 917.824219 695.644531 C 919.492188 695.808594 921.144531 696.054688 922.789062 696.382812 C 924.429688 696.707031 926.054688 697.117188 927.65625 697.601562 C 929.257812 698.085938 930.832031 698.652344 932.378906 699.292969 C 933.925781 699.933594 935.441406 700.648438 936.917969 701.4375 C 938.394531 702.226562 939.828125 703.085938 941.222656 704.015625 C 942.613281 704.949219 943.957031 705.945312 945.25 707.007812 C 946.546875 708.070312 947.785156 709.191406 948.96875 710.375 C 950.152344 711.5625 951.277344 712.800781 952.339844 714.09375 C 953.402344 715.390625 954.398438 716.734375 955.328125 718.125 C 956.257812 719.519531 957.121094 720.953125 957.910156 722.429688 C 958.699219 723.90625 959.414062 725.417969 960.054688 726.964844 C 960.695312 728.511719 961.257812 730.089844 961.746094 731.691406 C 962.230469 733.292969 962.636719 734.914062 962.964844 736.558594 C 963.289062 738.199219 963.535156 739.855469 963.699219 741.523438 C 963.863281 743.1875 963.945312 744.859375 963.945312 746.535156 Z M 963.945312 746.535156 " fill-opacity="1" fill-rule="nonzero"/></g><path fill="#212121" d="M 912.8125 792.792969 C 887.28125 792.792969 866.554688 772.0625 866.554688 746.535156 C 866.554688 721.003906 887.28125 700.277344 912.8125 700.277344 C 938.339844 700.277344 959.070312 721.003906 959.070312 746.535156 C 959.070312 772.0625 938.339844 792.792969 912.8125 792.792969 Z M 912.8125 701.417969 C 887.890625 701.417969 867.699219 721.613281 867.699219 746.535156 C 867.699219 771.453125 887.96875 791.648438 912.8125 791.648438 C 937.730469 791.648438 957.925781 771.378906 957.925781 746.535156 C 957.925781 721.613281 937.730469 701.417969 912.8125 701.417969 Z M 912.8125 701.417969 " fill-opacity="1" fill-rule="nonzero"/><g clip-path="url(#ec473b1e90)"><path fill="#0038ff" d="M 903.542969 443.769531 C 903.542969 445.441406 903.460938 447.113281 903.296875 448.78125 C 903.132812 450.445312 902.886719 452.101562 902.558594 453.742188 C 902.234375 455.386719 901.828125 457.007812 901.339844 458.613281 C 900.855469 460.214844 900.289062 461.789062 899.648438 463.335938 C 899.007812 464.882812 898.292969 466.394531 897.503906 467.871094 C 896.714844 469.351562 895.855469 470.785156 894.925781 472.175781 C 893.992188 473.570312 892.996094 474.914062 891.933594 476.207031 C 890.871094 477.503906 889.75 478.742188 888.566406 479.925781 C 887.382812 481.109375 886.140625 482.234375 884.847656 483.296875 C 883.550781 484.359375 882.207031 485.355469 880.816406 486.285156 C 879.425781 487.214844 877.988281 488.074219 876.511719 488.863281 C 875.035156 489.652344 873.523438 490.371094 871.976562 491.011719 C 870.429688 491.652344 868.855469 492.214844 867.25 492.699219 C 865.648438 493.1875 864.027344 493.59375 862.382812 493.921875 C 860.742188 494.246094 859.085938 494.492188 857.417969 494.65625 C 855.753906 494.820312 854.082031 494.902344 852.40625 494.902344 C 850.734375 494.902344 849.0625 494.820312 847.394531 494.65625 C 845.730469 494.492188 844.074219 494.246094 842.429688 493.921875 C 840.789062 493.59375 839.167969 493.1875 837.5625 492.699219 C 835.960938 492.214844 834.386719 491.652344 832.839844 491.011719 C 831.292969 490.371094 829.78125 489.652344 828.300781 488.863281 C 826.824219 488.074219 825.390625 487.214844 824 486.285156 C 822.605469 485.355469 821.261719 484.359375 819.96875 483.296875 C 818.671875 482.234375 817.433594 481.109375 816.25 479.925781 C 815.066406 478.742188 813.941406 477.503906 812.878906 476.207031 C 811.816406 474.914062 810.820312 473.570312 809.890625 472.175781 C 808.960938 470.785156 808.101562 469.351562 807.3125 467.871094 C 806.519531 466.394531 805.804688 464.882812 805.164062 463.335938 C 804.523438 461.789062 803.960938 460.214844 803.472656 458.613281 C 802.988281 457.007812 802.582031 455.386719 802.253906 453.742188 C 801.929688 452.101562 801.683594 450.445312 801.519531 448.78125 C 801.355469 447.113281 801.273438 445.441406 801.273438 443.769531 C 801.273438 442.09375 801.355469 440.421875 801.519531 438.753906 C 801.683594 437.089844 801.929688 435.433594 802.253906 433.792969 C 802.582031 432.148438 802.988281 430.527344 803.472656 428.925781 C 803.960938 427.320312 804.523438 425.746094 805.164062 424.199219 C 805.804688 422.652344 806.519531 421.140625 807.3125 419.664062 C 808.101562 418.1875 808.960938 416.75 809.890625 415.359375 C 810.820312 413.964844 811.816406 412.621094 812.878906 411.328125 C 813.941406 410.035156 815.066406 408.792969 816.25 407.609375 C 817.433594 406.425781 818.671875 405.300781 819.96875 404.242188 C 821.261719 403.179688 822.605469 402.179688 824 401.25 C 825.390625 400.320312 826.824219 399.460938 828.300781 398.671875 C 829.78125 397.882812 831.292969 397.167969 832.839844 396.527344 C 834.386719 395.882812 835.960938 395.320312 837.5625 394.835938 C 839.167969 394.347656 840.789062 393.941406 842.429688 393.617188 C 844.074219 393.289062 845.730469 393.042969 847.394531 392.878906 C 849.0625 392.714844 850.734375 392.632812 852.40625 392.632812 C 854.082031 392.632812 855.753906 392.714844 857.417969 392.878906 C 859.085938 393.042969 860.742188 393.289062 862.382812 393.617188 C 864.027344 393.941406 865.648438 394.347656 867.25 394.835938 C 868.855469 395.320312 870.429688 395.882812 871.976562 396.527344 C 873.523438 397.167969 875.035156 397.882812 876.511719 398.671875 C 877.988281 399.460938 879.425781 400.320312 880.816406 401.25 C 882.207031 402.179688 883.550781 403.179688 884.847656 404.242188 C 886.140625 405.300781 887.382812 406.425781 888.566406 407.609375 C 889.75 408.792969 890.871094 410.035156 891.933594 411.328125 C 892.996094 412.621094 893.992188 413.964844 894.925781 415.359375 C 895.855469 416.75 896.714844 418.1875 897.503906 419.664062 C 898.292969 421.140625 899.007812 422.652344 899.648438 424.199219 C 900.289062 425.746094 900.855469 427.320312 901.339844 428.925781 C 901.828125 430.527344 902.234375 432.148438 902.558594 433.792969 C 902.886719 435.433594 903.132812 437.089844 903.296875 438.753906 C 903.460938 440.421875 903.542969 442.09375 903.542969 443.769531 Z M 903.542969 443.769531 " fill-opacity="1" fill-rule="nonzero"/></g><path fill="#212121" d="M 852.40625 490.027344 C 826.878906 490.027344 806.148438 469.296875 806.148438 443.769531 C 806.148438 418.238281 826.878906 397.511719 852.40625 397.511719 C 877.9375 397.511719 898.664062 418.238281 898.664062 443.769531 C 898.664062 469.296875 877.9375 490.027344 852.40625 490.027344 Z M 852.40625 398.652344 C 827.488281 398.652344 807.292969 418.847656 807.292969 443.769531 C 807.292969 468.6875 827.5625 488.882812 852.40625 488.882812 C 877.328125 488.882812 897.523438 468.613281 897.523438 443.769531 C 897.523438 418.847656 877.328125 398.652344 852.40625 398.652344 Z M 852.40625 398.652344 " fill-opacity="1" fill-rule="nonzero"/><g clip-path="url(#ae14cdde99)"><path fill="#0038ff" d="M 1181.875 453.171875 C 1181.875 454.847656 1181.792969 456.519531 1181.628906 458.183594 C 1181.464844 459.851562 1181.21875 461.503906 1180.890625 463.148438 C 1180.566406 464.789062 1180.160156 466.414062 1179.671875 468.015625 C 1179.1875 469.617188 1178.621094 471.195312 1177.980469 472.742188 C 1177.339844 474.289062 1176.625 475.800781 1175.835938 477.277344 C 1175.046875 478.753906 1174.1875 480.1875 1173.257812 481.582031 C 1172.328125 482.972656 1171.328125 484.316406 1170.265625 485.613281 C 1169.203125 486.90625 1168.082031 488.144531 1166.898438 489.328125 C 1165.714844 490.515625 1164.472656 491.636719 1163.179688 492.699219 C 1161.882812 493.761719 1160.542969 494.757812 1159.148438 495.6875 C 1157.757812 496.621094 1156.320312 497.480469 1154.84375 498.269531 C 1153.367188 499.058594 1151.855469 499.773438 1150.308594 500.414062 C 1148.761719 501.054688 1147.1875 501.617188 1145.582031 502.105469 C 1143.980469 502.589844 1142.359375 502.996094 1140.714844 503.324219 C 1139.074219 503.652344 1137.417969 503.898438 1135.75 504.0625 C 1134.085938 504.226562 1132.414062 504.308594 1130.738281 504.308594 C 1129.066406 504.308594 1127.394531 504.226562 1125.726562 504.0625 C 1124.0625 503.898438 1122.40625 503.652344 1120.765625 503.324219 C 1119.121094 502.996094 1117.5 502.589844 1115.894531 502.105469 C 1114.292969 501.617188 1112.71875 501.054688 1111.171875 500.414062 C 1109.625 499.773438 1108.113281 499.058594 1106.636719 498.269531 C 1105.15625 497.480469 1103.722656 496.621094 1102.332031 495.6875 C 1100.9375 494.757812 1099.59375 493.761719 1098.300781 492.699219 C 1097.003906 491.636719 1095.765625 490.515625 1094.582031 489.328125 C 1093.398438 488.144531 1092.273438 486.90625 1091.210938 485.613281 C 1090.148438 484.316406 1089.152344 482.972656 1088.222656 481.582031 C 1087.292969 480.1875 1086.433594 478.753906 1085.644531 477.277344 C 1084.851562 475.800781 1084.136719 474.289062 1083.496094 472.742188 C 1082.855469 471.195312 1082.292969 469.617188 1081.808594 468.015625 C 1081.320312 466.414062 1080.914062 464.789062 1080.585938 463.148438 C 1080.261719 461.503906 1080.015625 459.851562 1079.851562 458.183594 C 1079.6875 456.519531 1079.605469 454.847656 1079.605469 453.171875 C 1079.605469 451.496094 1079.6875 449.828125 1079.851562 448.160156 C 1080.015625 446.492188 1080.261719 444.839844 1080.585938 443.195312 C 1080.914062 441.554688 1081.320312 439.929688 1081.808594 438.328125 C 1082.292969 436.726562 1082.855469 435.152344 1083.496094 433.605469 C 1084.136719 432.058594 1084.851562 430.542969 1085.644531 429.066406 C 1086.433594 427.589844 1087.292969 426.15625 1088.222656 424.761719 C 1089.152344 423.371094 1090.148438 422.027344 1091.210938 420.734375 C 1092.273438 419.4375 1093.398438 418.199219 1094.582031 417.015625 C 1095.765625 415.832031 1097.003906 414.707031 1098.300781 413.644531 C 1099.59375 412.582031 1100.9375 411.585938 1102.332031 410.65625 C 1103.722656 409.726562 1105.15625 408.863281 1106.636719 408.074219 C 1108.113281 407.285156 1109.625 406.570312 1111.171875 405.929688 C 1112.71875 405.289062 1114.292969 404.726562 1115.894531 404.238281 C 1117.5 403.753906 1119.121094 403.347656 1120.765625 403.019531 C 1122.40625 402.695312 1124.0625 402.449219 1125.726562 402.285156 C 1127.394531 402.121094 1129.066406 402.039062 1130.738281 402.039062 C 1132.414062 402.039062 1134.085938 402.121094 1135.75 402.285156 C 1137.417969 402.449219 1139.074219 402.695312 1140.714844 403.019531 C 1142.359375 403.347656 1143.980469 403.753906 1145.582031 404.238281 C 1147.1875 404.726562 1148.761719 405.289062 1150.308594 405.929688 C 1151.855469 406.570312 1153.367188 407.285156 1154.84375 408.074219 C 1156.320312 408.863281 1157.757812 409.726562 1159.148438 410.65625 C 1160.542969 411.585938 1161.882812 412.582031 1163.179688 413.644531 C 1164.472656 414.707031 1165.714844 415.832031 1166.898438 417.015625 C 1168.082031 418.199219 1169.203125 419.4375 1170.265625 420.734375 C 1171.328125 422.027344 1172.328125 423.371094 1173.257812 424.761719 C 1174.1875 426.15625 1175.046875 427.589844 1175.835938 429.066406 C 1176.625 430.542969 1177.339844 432.058594 1177.980469 433.605469 C 1178.621094 435.152344 1179.1875 436.726562 1179.671875 438.328125 C 1180.160156 439.929688 1180.566406 441.554688 1180.890625 443.195312 C 1181.21875 444.839844 1181.464844 446.492188 1181.628906 448.160156 C 1181.792969 449.828125 1181.875 451.496094 1181.875 453.171875 Z M 1181.875 453.171875 " fill-opacity="1" fill-rule="nonzero"/></g><path fill="#212121" d="M 1130.738281 499.429688 C 1105.210938 499.429688 1084.480469 478.703125 1084.480469 453.171875 C 1084.480469 427.644531 1105.210938 406.914062 1130.738281 406.914062 C 1156.269531 406.914062 1176.996094 427.644531 1176.996094 453.171875 C 1176.996094 478.703125 1156.269531 499.429688 1130.738281 499.429688 Z M 1130.738281 408.058594 C 1105.820312 408.058594 1085.625 428.253906 1085.625 453.171875 C 1085.625 478.09375 1105.894531 498.285156 1130.738281 498.285156 C 1155.660156 498.285156 1175.855469 478.015625 1175.855469 453.171875 C 1175.855469 428.253906 1155.660156 408.058594 1130.738281 408.058594 Z M 1130.738281 408.058594 " fill-opacity="1" fill-rule="nonzero"/><g clip-path="url(#59c8fcbb1b)"><path fill="#0038ff" d="M 1181.875 603.660156 C 1181.875 605.335938 1181.792969 607.007812 1181.628906 608.671875 C 1181.464844 610.339844 1181.21875 611.996094 1180.890625 613.636719 C 1180.566406 615.28125 1180.160156 616.902344 1179.671875 618.503906 C 1179.1875 620.109375 1178.621094 621.683594 1177.980469 623.230469 C 1177.339844 624.777344 1176.625 626.289062 1175.835938 627.765625 C 1175.046875 629.242188 1174.1875 630.679688 1173.257812 632.070312 C 1172.328125 633.464844 1171.328125 634.804688 1170.265625 636.101562 C 1169.203125 637.394531 1168.082031 638.636719 1166.898438 639.820312 C 1165.714844 641.003906 1164.472656 642.125 1163.179688 643.1875 C 1161.882812 644.25 1160.542969 645.25 1159.148438 646.179688 C 1157.757812 647.109375 1156.320312 647.96875 1154.84375 648.757812 C 1153.367188 649.546875 1151.855469 650.261719 1150.308594 650.902344 C 1148.761719 651.542969 1147.1875 652.109375 1145.582031 652.59375 C 1143.980469 653.082031 1142.359375 653.488281 1140.714844 653.8125 C 1139.074219 654.140625 1137.417969 654.386719 1135.75 654.550781 C 1134.085938 654.714844 1132.414062 654.796875 1130.738281 654.796875 C 1129.066406 654.796875 1127.394531 654.714844 1125.726562 654.550781 C 1124.0625 654.386719 1122.40625 654.140625 1120.765625 653.8125 C 1119.121094 653.488281 1117.5 653.082031 1115.894531 652.59375 C 1114.292969 652.109375 1112.71875 651.542969 1111.171875 650.902344 C 1109.625 650.261719 1108.113281 649.546875 1106.636719 648.757812 C 1105.15625 647.96875 1103.722656 647.109375 1102.332031 646.179688 C 1100.9375 645.25 1099.59375 644.25 1098.300781 643.1875 C 1097.003906 642.125 1095.765625 641.003906 1094.582031 639.820312 C 1093.398438 638.636719 1092.273438 637.394531 1091.210938 636.101562 C 1090.148438 634.804688 1089.152344 633.464844 1088.222656 632.070312 C 1087.292969 630.679688 1086.433594 629.242188 1085.644531 627.765625 C 1084.851562 626.289062 1084.136719 624.777344 1083.496094 623.230469 C 1082.855469 621.683594 1082.292969 620.109375 1081.808594 618.503906 C 1081.320312 616.902344 1080.914062 615.28125 1080.585938 613.636719 C 1080.261719 611.996094 1080.015625 610.339844 1079.851562 608.671875 C 1079.6875 607.007812 1079.605469 605.335938 1079.605469 603.660156 C 1079.605469 601.988281 1079.6875 600.316406 1079.851562 598.648438 C 1080.015625 596.984375 1080.261719 595.328125 1080.585938 593.6875 C 1080.914062 592.042969 1081.320312 590.421875 1081.808594 588.816406 C 1082.292969 587.214844 1082.855469 585.640625 1083.496094 584.09375 C 1084.136719 582.546875 1084.851562 581.035156 1085.644531 579.558594 C 1086.433594 578.078125 1087.292969 576.644531 1088.222656 575.253906 C 1089.152344 573.859375 1090.148438 572.515625 1091.210938 571.222656 C 1092.273438 569.925781 1093.398438 568.6875 1094.582031 567.503906 C 1095.765625 566.320312 1097.003906 565.195312 1098.300781 564.132812 C 1099.59375 563.070312 1100.9375 562.074219 1102.332031 561.144531 C 1103.722656 560.214844 1105.15625 559.355469 1106.636719 558.566406 C 1108.113281 557.773438 1109.625 557.058594 1111.171875 556.417969 C 1112.71875 555.777344 1114.292969 555.214844 1115.894531 554.730469 C 1117.5 554.242188 1119.121094 553.835938 1120.765625 553.507812 C 1122.40625 553.183594 1124.0625 552.9375 1125.726562 552.773438 C 1127.394531 552.609375 1129.066406 552.527344 1130.738281 552.527344 C 1132.414062 552.527344 1134.085938 552.609375 1135.75 552.773438 C 1137.417969 552.9375 1139.074219 553.183594 1140.714844 553.507812 C 1142.359375 553.835938 1143.980469 554.242188 1145.582031 554.730469 C 1147.1875 555.214844 1148.761719 555.777344 1150.308594 556.417969 C 1151.855469 557.058594 1153.367188 557.773438 1154.84375 558.566406 C 1156.320312 559.355469 1157.757812 560.214844 1159.148438 561.144531 C 1160.542969 562.074219 1161.882812 563.070312 1163.179688 564.132812 C 1164.472656 565.195312 1165.714844 566.320312 1166.898438 567.503906 C 1168.082031 568.6875 1169.203125 569.925781 1170.265625 571.222656 C 1171.328125 572.515625 1172.328125 573.859375 1173.257812 575.253906 C 1174.1875 576.644531 1175.046875 578.078125 1175.835938 579.558594 C 1176.625 581.035156 1177.339844 582.546875 1177.980469 584.09375 C 1178.621094 585.640625 1179.1875 587.214844 1179.671875 588.816406 C 1180.160156 590.421875 1180.566406 592.042969 1180.890625 593.6875 C 1181.21875 595.328125 1181.464844 596.984375 1181.628906 598.648438 C 1181.792969 600.316406 1181.875 601.988281 1181.875 603.660156 Z M 1181.875 603.660156 " fill-opacity="1" fill-rule="nonzero"/></g><path fill="#212121" d="M 1130.738281 649.917969 C 1105.210938 649.917969 1084.480469 629.191406 1084.480469 603.660156 C 1084.480469 578.132812 1105.210938 557.402344 1130.738281 557.402344 C 1156.269531 557.402344 1176.996094 578.132812 1176.996094 603.660156 C 1176.996094 629.191406 1156.269531 649.917969 1130.738281 649.917969 Z M 1130.738281 558.546875 C 1105.820312 558.546875 1085.625 578.742188 1085.625 603.660156 C 1085.625 628.582031 1105.894531 648.777344 1130.738281 648.777344 C 1155.660156 648.777344 1175.855469 628.503906 1175.855469 603.660156 C 1175.855469 578.742188 1155.660156 558.546875 1130.738281 558.546875 Z M 1130.738281 558.546875 " fill-opacity="1" fill-rule="nonzero"/><g clip-path="url(#8f0f9af0d9)"><path fill="#0038ff" d="M 1117.355469 751.238281 C 1117.355469 752.910156 1117.273438 754.582031 1117.109375 756.25 C 1116.945312 757.914062 1116.699219 759.570312 1116.375 761.210938 C 1116.046875 762.855469 1115.640625 764.476562 1115.152344 766.082031 C 1114.667969 767.683594 1114.105469 769.257812 1113.464844 770.804688 C 1112.824219 772.351562 1112.105469 773.863281 1111.316406 775.339844 C 1110.527344 776.816406 1109.667969 778.253906 1108.738281 779.644531 C 1107.808594 781.039062 1106.8125 782.382812 1105.75 783.675781 C 1104.6875 784.96875 1103.5625 786.210938 1102.378906 787.394531 C 1101.195312 788.578125 1099.953125 789.703125 1098.660156 790.765625 C 1097.367188 791.828125 1096.023438 792.824219 1094.628906 793.753906 C 1093.238281 794.683594 1091.800781 795.542969 1090.324219 796.332031 C 1088.847656 797.121094 1087.335938 797.839844 1085.789062 798.480469 C 1084.242188 799.121094 1082.667969 799.683594 1081.066406 800.167969 C 1079.460938 800.65625 1077.839844 801.0625 1076.195312 801.390625 C 1074.554688 801.714844 1072.898438 801.960938 1071.234375 802.125 C 1069.566406 802.289062 1067.894531 802.371094 1066.222656 802.371094 C 1064.546875 802.371094 1062.875 802.289062 1061.207031 802.125 C 1059.542969 801.960938 1057.886719 801.714844 1056.246094 801.390625 C 1054.601562 801.0625 1052.980469 800.65625 1051.378906 800.167969 C 1049.773438 799.683594 1048.199219 799.121094 1046.652344 798.480469 C 1045.105469 797.839844 1043.59375 797.121094 1042.117188 796.332031 C 1040.640625 795.542969 1039.203125 794.683594 1037.8125 793.753906 C 1036.417969 792.824219 1035.074219 791.828125 1033.78125 790.765625 C 1032.488281 789.703125 1031.246094 788.578125 1030.0625 787.394531 C 1028.878906 786.210938 1027.753906 784.96875 1026.691406 783.675781 C 1025.628906 782.382812 1024.632812 781.039062 1023.703125 779.644531 C 1022.773438 778.253906 1021.914062 776.816406 1021.125 775.339844 C 1020.335938 773.863281 1019.621094 772.351562 1018.980469 770.804688 C 1018.335938 769.257812 1017.773438 767.683594 1017.289062 766.082031 C 1016.800781 764.476562 1016.394531 762.855469 1016.070312 761.210938 C 1015.742188 759.570312 1015.496094 757.914062 1015.332031 756.25 C 1015.167969 754.582031 1015.085938 752.910156 1015.085938 751.238281 C 1015.085938 749.5625 1015.167969 747.890625 1015.332031 746.222656 C 1015.496094 744.558594 1015.742188 742.902344 1016.070312 741.261719 C 1016.394531 739.617188 1016.800781 737.996094 1017.289062 736.394531 C 1017.773438 734.789062 1018.335938 733.214844 1018.980469 731.667969 C 1019.621094 730.121094 1020.335938 728.609375 1021.125 727.132812 C 1021.914062 725.65625 1022.773438 724.21875 1023.703125 722.828125 C 1024.632812 721.433594 1025.628906 720.089844 1026.691406 718.796875 C 1027.753906 717.503906 1028.878906 716.261719 1030.0625 715.078125 C 1031.246094 713.894531 1032.488281 712.769531 1033.78125 711.707031 C 1035.074219 710.644531 1036.417969 709.648438 1037.8125 708.71875 C 1039.203125 707.789062 1040.640625 706.929688 1042.117188 706.140625 C 1043.59375 705.351562 1045.105469 704.636719 1046.652344 703.996094 C 1048.199219 703.351562 1049.773438 702.789062 1051.378906 702.304688 C 1052.980469 701.816406 1054.601562 701.410156 1056.246094 701.085938 C 1057.886719 700.757812 1059.542969 700.511719 1061.207031 700.347656 C 1062.875 700.183594 1064.546875 700.101562 1066.222656 700.101562 C 1067.894531 700.101562 1069.566406 700.183594 1071.234375 700.347656 C 1072.898438 700.511719 1074.554688 700.757812 1076.195312 701.085938 C 1077.839844 701.410156 1079.460938 701.816406 1081.066406 702.304688 C 1082.667969 702.789062 1084.242188 703.351562 1085.789062 703.996094 C 1087.335938 704.636719 1088.847656 705.351562 1090.324219 706.140625 C 1091.800781 706.929688 1093.238281 707.789062 1094.628906 708.71875 C 1096.023438 709.648438 1097.367188 710.644531 1098.660156 711.707031 C 1099.953125 712.769531 1101.195312 713.894531 1102.378906 715.078125 C 1103.5625 716.261719 1104.6875 717.503906 1105.75 718.796875 C 1106.8125 720.089844 1107.808594 721.433594 1108.738281 722.828125 C 1109.667969 724.21875 1110.527344 725.65625 1111.316406 727.132812 C 1112.105469 728.609375 1112.824219 730.121094 1113.464844 731.667969 C 1114.105469 733.214844 1114.667969 734.789062 1115.152344 736.394531 C 1115.640625 737.996094 1116.046875 739.617188 1116.375 741.261719 C 1116.699219 742.902344 1116.945312 744.558594 1117.109375 746.222656 C 1117.273438 747.890625 1117.355469 749.5625 1117.355469 751.238281 Z M 1117.355469 751.238281 " fill-opacity="1" fill-rule="nonzero"/></g><path fill="#212121" d="M 1066.222656 797.492188 C 1040.691406 797.492188 1019.964844 776.765625 1019.964844 751.238281 C 1019.964844 725.707031 1040.691406 704.980469 1066.222656 704.980469 C 1091.75 704.980469 1112.476562 725.707031 1112.476562 751.238281 C 1112.476562 776.765625 1091.75 797.492188 1066.222656 797.492188 Z M 1066.222656 706.121094 C 1041.300781 706.121094 1021.105469 726.316406 1021.105469 751.238281 C 1021.105469 776.15625 1041.378906 796.351562 1066.222656 796.351562 C 1091.140625 796.351562 1111.335938 776.078125 1111.335938 751.238281 C 1111.335938 726.316406 1091.140625 706.121094 1066.222656 706.121094 Z M 1066.222656 706.121094 " fill-opacity="1" fill-rule="nonzero"/><g clip-path="url(#8af4d7d73b)"><path fill="#0038ff" d="M 903.542969 603.660156 C 903.542969 605.335938 903.460938 607.007812 903.296875 608.671875 C 903.132812 610.339844 902.886719 611.996094 902.558594 613.636719 C 902.234375 615.28125 901.828125 616.902344 901.339844 618.503906 C 900.855469 620.109375 900.289062 621.683594 899.648438 623.230469 C 899.007812 624.777344 898.292969 626.289062 897.503906 627.765625 C 896.714844 629.242188 895.855469 630.679688 894.925781 632.070312 C 893.992188 633.464844 892.996094 634.804688 891.933594 636.101562 C 890.871094 637.394531 889.75 638.636719 888.566406 639.820312 C 887.382812 641.003906 886.140625 642.125 884.847656 643.1875 C 883.550781 644.25 882.207031 645.25 880.816406 646.179688 C 879.425781 647.109375 877.988281 647.96875 876.511719 648.757812 C 875.035156 649.546875 873.523438 650.261719 871.976562 650.902344 C 870.429688 651.542969 868.855469 652.109375 867.25 652.59375 C 865.648438 653.082031 864.027344 653.488281 862.382812 653.8125 C 860.742188 654.140625 859.085938 654.386719 857.417969 654.550781 C 855.753906 654.714844 854.082031 654.796875 852.40625 654.796875 C 850.734375 654.796875 849.0625 654.714844 847.394531 654.550781 C 845.730469 654.386719 844.074219 654.140625 842.429688 653.8125 C 840.789062 653.488281 839.167969 653.082031 837.5625 652.59375 C 835.960938 652.109375 834.386719 651.542969 832.839844 650.902344 C 831.292969 650.261719 829.78125 649.546875 828.300781 648.757812 C 826.824219 647.96875 825.390625 647.109375 824 646.179688 C 822.605469 645.25 821.261719 644.25 819.96875 643.1875 C 818.671875 642.125 817.433594 641.003906 816.25 639.820312 C 815.066406 638.636719 813.941406 637.394531 812.878906 636.101562 C 811.816406 634.804688 810.820312 633.464844 809.890625 632.070312 C 808.960938 630.679688 808.101562 629.242188 807.3125 627.765625 C 806.519531 626.289062 805.804688 624.777344 805.164062 623.230469 C 804.523438 621.683594 803.960938 620.109375 803.472656 618.503906 C 802.988281 616.902344 802.582031 615.28125 802.253906 613.636719 C 801.929688 611.996094 801.683594 610.339844 801.519531 608.671875 C 801.355469 607.007812 801.273438 605.335938 801.273438 603.660156 C 801.273438 601.988281 801.355469 600.316406 801.519531 598.648438 C 801.683594 596.984375 801.929688 595.328125 802.253906 593.6875 C 802.582031 592.042969 802.988281 590.421875 803.472656 588.816406 C 803.960938 587.214844 804.523438 585.640625 805.164062 584.09375 C 805.804688 582.546875 806.519531 581.035156 807.3125 579.558594 C 808.101562 578.078125 808.960938 576.644531 809.890625 575.253906 C 810.820312 573.859375 811.816406 572.515625 812.878906 571.222656 C 813.941406 569.925781 815.066406 568.6875 816.25 567.503906 C 817.433594 566.320312 818.671875 565.195312 819.96875 564.132812 C 821.261719 563.070312 822.605469 562.074219 824 561.144531 C 825.390625 560.214844 826.824219 559.355469 828.300781 558.566406 C 829.78125 557.773438 831.292969 557.058594 832.839844 556.417969 C 834.386719 555.777344 835.960938 555.214844 837.5625 554.730469 C 839.167969 554.242188 840.789062 553.835938 842.429688 553.507812 C 844.074219 553.183594 845.730469 552.9375 847.394531 552.773438 C 849.0625 552.609375 850.734375 552.527344 852.40625 552.527344 C 854.082031 552.527344 855.753906 552.609375 857.417969 552.773438 C 859.085938 552.9375 860.742188 553.183594 862.382812 553.507812 C 864.027344 553.835938 865.648438 554.242188 867.25 554.730469 C 868.855469 555.214844 870.429688 555.777344 871.976562 556.417969 C 873.523438 557.058594 875.035156 557.773438 876.511719 558.566406 C 877.988281 559.355469 879.425781 560.214844 880.816406 561.144531 C 882.207031 562.074219 883.550781 563.070312 884.847656 564.132812 C 886.140625 565.195312 887.382812 566.320312 888.566406 567.503906 C 889.75 568.6875 890.871094 569.925781 891.933594 571.222656 C 892.996094 572.515625 893.992188 573.859375 894.925781 575.253906 C 895.855469 576.644531 896.714844 578.078125 897.503906 579.558594 C 898.292969 581.035156 899.007812 582.546875 899.648438 584.09375 C 900.289062 585.640625 900.855469 587.214844 901.339844 588.816406 C 901.828125 590.421875 902.234375 592.042969 902.558594 593.6875 C 902.886719 595.328125 903.132812 596.984375 903.296875 598.648438 C 903.460938 600.316406 903.542969 601.988281 903.542969 603.660156 Z M 903.542969 603.660156 " fill-opacity="1" fill-rule="nonzero"/></g><path fill="#212121" d="M 852.40625 649.917969 C 826.878906 649.917969 806.148438 629.191406 806.148438 603.660156 C 806.148438 578.132812 826.878906 557.402344 852.40625 557.402344 C 877.9375 557.402344 898.664062 578.132812 898.664062 603.660156 C 898.664062 629.191406 877.9375 649.917969 852.40625 649.917969 Z M 852.40625 558.546875 C 827.488281 558.546875 807.292969 578.742188 807.292969 603.660156 C 807.292969 628.582031 827.5625 648.777344 852.40625 648.777344 C 877.328125 648.777344 897.523438 628.503906 897.523438 603.660156 C 897.523438 578.742188 877.328125 558.546875 852.40625 558.546875 Z M 852.40625 558.546875 " fill-opacity="1" fill-rule="nonzero"/></svg>