<svg width="512" height="512" viewBox="0 0 512 512" xmlns="http://www.w3.org/2000/svg">
  <!-- Background circle -->
  <circle cx="256" cy="256" r="248" fill="#1a1010"/>

  <!-- Base plinth -->
  <rect x="128" y="455" width="256" height="36" fill="#d4c9a8"/>

  <!-- Tower body -->
  <rect x="138" y="140" width="236" height="315" fill="#d4c9a8"/>

  <!-- Stone row lines -->
  <line x1="138" y1="179" x2="374" y2="179" stroke="#b0a080" stroke-width="2"/>
  <line x1="138" y1="218" x2="374" y2="218" stroke="#b0a080" stroke-width="2"/>
  <line x1="138" y1="257" x2="374" y2="257" stroke="#b0a080" stroke-width="2"/>
  <line x1="138" y1="336" x2="374" y2="336" stroke="#b0a080" stroke-width="2"/>
  <line x1="138" y1="375" x2="374" y2="375" stroke="#b0a080" stroke-width="2"/>
  <line x1="138" y1="414" x2="374" y2="414" stroke="#b0a080" stroke-width="2"/>

  <!-- Battlements (5 merlons) -->
  <rect x="138" y="98" width="36" height="42" fill="#d4c9a8"/>
  <rect x="190" y="98" width="36" height="42" fill="#d4c9a8"/>
  <rect x="242" y="98" width="36" height="42" fill="#d4c9a8"/>
  <rect x="294" y="98" width="36" height="42" fill="#d4c9a8"/>
  <rect x="346" y="98" width="36" height="42" fill="#d4c9a8"/>

  <!-- Doorway (pointed arch) -->
  <rect x="234" y="430" width="44" height="25" fill="#111"/>
  <ellipse cx="256" cy="430" rx="22" ry="22" fill="#111"/>

  <!-- Clock face -->
  <circle cx="256" cy="250" r="68" fill="#111" stroke="#c8a84b" stroke-width="5"/>
  <!-- Hour markers -->
  <line x1="256" y1="187" x2="256" y2="198" stroke="#c8a84b" stroke-width="3"/>
  <line x1="290" y1="190" x2="285" y2="200" stroke="#c8a84b" stroke-width="3"/>
  <line x1="316" y1="216" x2="308" y2="222" stroke="#c8a84b" stroke-width="3"/>
  <line x1="324" y1="250" x2="313" y2="250" stroke="#c8a84b" stroke-width="3"/>
  <line x1="316" y1="284" x2="308" y2="278" stroke="#c8a84b" stroke-width="3"/>
  <line x1="290" y1="310" x2="285" y2="300" stroke="#c8a84b" stroke-width="3"/>
  <line x1="256" y1="313" x2="256" y2="302" stroke="#c8a84b" stroke-width="3"/>
  <line x1="222" y1="310" x2="227" y2="300" stroke="#c8a84b" stroke-width="3"/>
  <line x1="196" y1="284" x2="204" y2="278" stroke="#c8a84b" stroke-width="3"/>
  <line x1="188" y1="250" x2="199" y2="250" stroke="#c8a84b" stroke-width="3"/>
  <line x1="196" y1="216" x2="204" y2="222" stroke="#c8a84b" stroke-width="3"/>
  <line x1="222" y1="190" x2="227" y2="200" stroke="#c8a84b" stroke-width="3"/>
  <!-- Hour hand (~10 o'clock) -->
  <line x1="256" y1="250" x2="224" y2="218" stroke="#f0e8d0" stroke-width="5" stroke-linecap="round"/>
  <!-- Minute hand (12) -->
  <line x1="256" y1="250" x2="256" y2="196" stroke="#f0e8d0" stroke-width="4" stroke-linecap="round"/>
  <!-- Centre pin -->
  <circle cx="256" cy="250" r="6" fill="#c8a84b"/>

  <!-- Blood drips from clock bottom -->
  <line x1="234" y1="318" x2="234" y2="370" stroke="#cc0000" stroke-width="6"/>
  <ellipse cx="234" cy="377" rx="8" ry="10" fill="#cc0000"/>

<line x1="280" y1="318" x2="280" y2="355" stroke="#cc0000" stroke-width="6"/>
  <ellipse cx="280" cy="362" rx="8" ry="10" fill="#cc0000"/>

  <!-- Small arched window -->
  <rect x="242" y="378" width="28" height="30" fill="#111"/>
  <ellipse cx="256" cy="378" rx="14" ry="14" fill="#111"/>
</svg>
