<svg xmlns="http://www.w3.org/2000/svg" xmlns:xlink="http://www.w3.org/1999/xlink" width="2000" zoomAndPan="magnify" viewBox="0 0 1500 1499.999933" height="2000" preserveAspectRatio="xMidYMid meet" version="1.0"><defs><clipPath id="41a3f08a17"><path d="M 0 2.351562 L 1497.75 2.351562 L 1497.75 1500 L 0 1500 Z M 0 2.351562 " clip-rule="nonzero"/></clipPath><clipPath id="f518d9790f"><path d="M 965.109375 367.742188 L 1080.609375 367.742188 L 1080.609375 483.242188 L 965.109375 483.242188 Z M 965.109375 367.742188 " clip-rule="nonzero"/></clipPath><clipPath id="6553613900"><path d="M 876.144531 835.878906 L 991.644531 835.878906 L 991.644531 951.378906 L 876.144531 951.378906 Z M 876.144531 835.878906 " clip-rule="nonzero"/></clipPath><clipPath id="7cee72a58b"><path d="M 807.914062 493.886719 L 923.414062 493.886719 L 923.414062 609.386719 L 807.914062 609.386719 Z M 807.914062 493.886719 " clip-rule="nonzero"/></clipPath><clipPath id="19b559c965"><path d="M 1122.308594 504.511719 L 1237.808594 504.511719 L 1237.808594 620.011719 L 1122.308594 620.011719 Z M 1122.308594 504.511719 " clip-rule="nonzero"/></clipPath><clipPath id="b399cc3a28"><path d="M 1122.308594 674.496094 L 1237.808594 674.496094 L 1237.808594 789.996094 L 1122.308594 789.996094 Z M 1122.308594 674.496094 " clip-rule="nonzero"/></clipPath><clipPath id="d4ea8f6266"><path d="M 1049.429688 841.191406 L 1164.929688 841.191406 L 1164.929688 956.691406 L 1049.429688 956.691406 Z M 1049.429688 841.191406 " clip-rule="nonzero"/></clipPath><clipPath id="1dcd91eb04"><path d="M 807.914062 674.496094 L 923.414062 674.496094 L 923.414062 789.996094 L 807.914062 789.996094 Z M 807.914062 674.496094 " clip-rule="nonzero"/></clipPath></defs><g clip-path="url(#41a3f08a17)"><path fill="#212121" d="M 1497.644531 751.171875 C 1497.644531 763.429688 1497.34375 775.675781 1496.742188 787.917969 C 1496.140625 800.15625 1495.238281 812.375 1494.039062 824.570312 C 1492.835938 836.765625 1491.335938 848.925781 1489.539062 861.046875 C 1487.742188 873.171875 1485.648438 885.242188 1483.257812 897.261719 C 1480.863281 909.28125 1478.179688 921.234375 1475.203125 933.121094 C 1472.226562 945.011719 1468.957031 956.816406 1465.402344 968.542969 C 1461.84375 980.273438 1458 991.90625 1453.871094 1003.445312 C 1449.742188 1014.980469 1445.332031 1026.414062 1440.644531 1037.734375 C 1435.953125 1049.058594 1430.988281 1060.257812 1425.75 1071.335938 C 1420.507812 1082.414062 1415 1093.359375 1409.222656 1104.164062 C 1403.449219 1114.972656 1397.410156 1125.632812 1391.109375 1136.144531 C 1384.808594 1146.65625 1378.253906 1157.007812 1371.445312 1167.195312 C 1364.636719 1177.386719 1357.582031 1187.402344 1350.28125 1197.246094 C 1342.980469 1207.089844 1335.445312 1216.746094 1327.667969 1226.222656 C 1319.894531 1235.695312 1311.894531 1244.972656 1303.664062 1254.050781 C 1295.433594 1263.132812 1286.984375 1272.003906 1278.320312 1280.671875 C 1269.652344 1289.335938 1260.78125 1297.785156 1251.699219 1306.015625 C 1242.621094 1314.242188 1233.34375 1322.246094 1223.871094 1330.019531 C 1214.398438 1337.796875 1204.738281 1345.332031 1194.894531 1352.632812 C 1185.050781 1359.933594 1175.035156 1366.988281 1164.84375 1373.796875 C 1154.65625 1380.605469 1144.304688 1387.160156 1133.792969 1393.460938 C 1123.28125 1399.757812 1112.621094 1405.796875 1101.816406 1411.574219 C 1091.007812 1417.351562 1080.0625 1422.859375 1068.984375 1428.101562 C 1057.90625 1433.339844 1046.707031 1438.304688 1035.382812 1442.996094 C 1024.0625 1447.683594 1012.632812 1452.09375 1001.09375 1456.222656 C 989.554688 1460.351562 977.921875 1464.195312 966.195312 1467.75 C 954.464844 1471.308594 942.660156 1474.578125 930.769531 1477.554688 C 918.882812 1480.53125 906.929688 1483.214844 894.910156 1485.605469 C 882.890625 1487.996094 870.820312 1490.09375 858.695312 1491.890625 C 846.574219 1493.6875 834.414062 1495.1875 822.21875 1496.390625 C 810.023438 1497.589844 797.804688 1498.492188 785.566406 1499.09375 C 773.324219 1499.695312 761.078125 1499.996094 748.820312 1499.996094 C 736.566406 1499.996094 724.320312 1499.695312 712.078125 1499.09375 C 699.839844 1498.492188 687.621094 1497.589844 675.425781 1496.390625 C 663.230469 1495.1875 651.070312 1493.6875 638.945312 1491.890625 C 626.824219 1490.09375 614.753906 1487.996094 602.734375 1485.605469 C 590.714844 1483.214844 578.761719 1480.53125 566.875 1477.554688 C 554.984375 1474.578125 543.179688 1471.308594 531.449219 1467.75 C 519.722656 1464.195312 508.089844 1460.351562 496.550781 1456.222656 C 485.011719 1452.09375 473.582031 1447.683594 462.261719 1442.996094 C 450.9375 1438.304688 439.738281 1433.339844 428.660156 1428.101562 C 417.582031 1422.859375 406.636719 1417.351562 395.828125 1411.574219 C 385.023438 1405.796875 374.363281 1399.757812 363.851562 1393.460938 C 353.339844 1387.160156 342.988281 1380.605469 332.800781 1373.796875 C 322.609375 1366.988281 312.59375 1359.933594 302.75 1352.632812 C 292.90625 1345.332031 283.246094 1337.796875 273.773438 1330.019531 C 264.300781 1322.246094 255.023438 1314.242188 245.945312 1306.015625 C 236.863281 1297.785156 227.992188 1289.335938 219.324219 1280.671875 C 210.660156 1272.003906 202.210938 1263.132812 193.980469 1254.050781 C 185.75 1244.972656 177.75 1235.695312 169.976562 1226.222656 C 162.199219 1216.746094 154.664062 1207.089844 147.363281 1197.246094 C 140.0625 1187.402344 133.007812 1177.386719 126.199219 1167.195312 C 119.390625 1157.007812 112.835938 1146.65625 106.535156 1136.144531 C 100.234375 1125.632812 94.195312 1114.972656 88.421875 1104.164062 C 82.644531 1093.355469 77.132812 1082.414062 71.894531 1071.335938 C 66.65625 1060.257812 61.691406 1049.058594 57 1037.734375 C 52.3125 1026.414062 47.902344 1014.980469 43.773438 1003.445312 C 39.644531 991.90625 35.800781 980.273438 32.242188 968.542969 C 28.6875 956.816406 25.417969 945.011719 22.441406 933.121094 C 19.464844 921.234375 16.777344 909.28125 14.386719 897.261719 C 11.996094 885.242188 9.902344 873.171875 8.105469 861.046875 C 6.308594 848.925781 4.808594 836.765625 3.605469 824.570312 C 2.40625 812.375 1.503906 800.15625 0.902344 787.917969 C 0.300781 775.675781 0 763.429688 0 751.171875 C 0 738.917969 0.300781 726.671875 0.902344 714.429688 C 1.503906 702.191406 2.40625 689.972656 3.605469 677.777344 C 4.808594 665.578125 6.308594 653.421875 8.105469 641.296875 C 9.902344 629.175781 11.996094 617.105469 14.386719 605.085938 C 16.777344 593.066406 19.464844 581.113281 22.441406 569.222656 C 25.417969 557.335938 28.6875 545.527344 32.242188 533.800781 C 35.800781 522.074219 39.644531 510.441406 43.773438 498.902344 C 47.902344 487.363281 52.3125 475.933594 57 464.613281 C 61.691406 453.289062 66.65625 442.089844 71.894531 431.011719 C 77.132812 419.933594 82.644531 408.988281 88.421875 398.179688 C 94.195312 387.371094 100.234375 376.714844 106.535156 366.203125 C 112.835938 355.691406 119.390625 345.339844 126.199219 335.148438 C 133.007812 324.960938 140.0625 314.945312 147.363281 305.101562 C 154.664062 295.257812 162.199219 285.597656 169.976562 276.125 C 177.75 266.652344 185.75 257.375 193.980469 248.296875 C 202.210938 239.214844 210.660156 230.339844 219.324219 221.675781 C 227.992188 213.011719 236.863281 204.5625 245.945312 196.332031 C 255.023438 188.101562 264.300781 180.101562 273.773438 172.324219 C 283.246094 164.550781 292.90625 157.015625 302.75 149.714844 C 312.59375 142.414062 322.609375 135.359375 332.800781 128.550781 C 342.988281 121.742188 353.339844 115.1875 363.851562 108.886719 C 374.363281 102.585938 385.023438 96.546875 395.828125 90.769531 C 406.636719 84.992188 417.582031 79.484375 428.660156 74.246094 C 439.738281 69.007812 450.9375 64.042969 462.261719 59.351562 C 473.582031 54.660156 485.011719 50.253906 496.550781 46.125 C 508.089844 41.996094 519.722656 38.152344 531.449219 34.59375 C 543.179688 31.039062 554.984375 27.769531 566.875 24.792969 C 578.761719 21.816406 590.714844 19.128906 602.734375 16.738281 C 614.753906 14.347656 626.824219 12.253906 638.945312 10.457031 C 651.070312 8.65625 663.230469 7.15625 675.425781 5.957031 C 687.621094 4.753906 699.839844 3.855469 712.078125 3.253906 C 724.320312 2.652344 736.566406 2.351562 748.820312 2.351562 C 761.078125 2.351562 773.324219 2.652344 785.566406 3.253906 C 797.804688 3.855469 810.023438 4.753906 822.21875 5.957031 C 834.414062 7.15625 846.574219 8.65625 858.695312 10.457031 C 870.820312 12.253906 882.890625 14.347656 894.910156 16.738281 C 906.929688 19.128906 918.882812 21.816406 930.769531 24.792969 C 942.660156 27.769531 954.464844 31.039062 966.195312 34.59375 C 977.921875 38.152344 989.554688 41.996094 1001.09375 46.125 C 1012.632812 50.253906 1024.0625 54.660156 1035.382812 59.351562 C 1046.707031 64.042969 1057.90625 69.007812 1068.984375 74.246094 C 1080.0625 79.484375 1091.007812 84.992188 1101.816406 90.769531 C 1112.621094 96.546875 1123.28125 102.585938 1133.792969 108.886719 C 1144.304688 115.1875 1154.65625 121.742188 1164.84375 128.550781 C 1175.035156 135.359375 1185.050781 142.414062 1194.894531 149.714844 C 1204.738281 157.015625 1214.398438 164.550781 1223.871094 172.324219 C 1233.34375 180.101562 1242.621094 188.101562 1251.699219 196.332031 C 1260.78125 204.5625 1269.652344 213.011719 1278.320312 221.675781 C 1286.984375 230.339844 1295.433594 239.214844 1303.664062 248.296875 C 1311.894531 257.375 1319.894531 266.652344 1327.667969 276.125 C 1335.445312 285.597656 1342.980469 295.257812 1350.28125 305.101562 C 1357.582031 314.945312 1364.636719 324.960938 1371.445312 335.148438 C 1378.253906 345.339844 1384.808594 355.691406 1391.109375 366.203125 C 1397.410156 376.714844 1403.449219 387.371094 1409.222656 398.179688 C 1415 408.988281 1420.507812 419.933594 1425.75 431.011719 C 1430.988281 442.089844 1435.953125 453.289062 1440.644531 464.613281 C 1445.332031 475.933594 1449.742188 487.363281 1453.871094 498.902344 C 1458 510.441406 1461.84375 522.074219 1465.402344 533.800781 C 1468.957031 545.527344 1472.226562 557.335938 1475.203125 569.222656 C 1478.179688 581.113281 1480.863281 593.066406 1483.257812 605.085938 C 1485.648438 617.105469 1487.742188 629.175781 1489.539062 641.296875 C 1491.335938 653.421875 1492.835938 665.578125 1494.039062 677.777344 C 1495.238281 689.972656 1496.140625 702.191406 1496.742188 714.429688 C 1497.34375 726.671875 1497.644531 738.917969 1497.644531 751.171875 Z M 1497.644531 751.171875 " fill-opacity="1" fill-rule="nonzero"/></g><path fill="#212121" d="M 748.820312 1428.574219 C 374.96875 1428.574219 71.421875 1125.027344 71.421875 751.171875 C 71.421875 377.320312 374.96875 73.773438 748.820312 73.773438 C 1122.675781 73.773438 1426.222656 377.320312 1426.222656 751.171875 C 1426.222656 1125.027344 1122.675781 1428.574219 748.820312 1428.574219 Z M 748.820312 90.511719 C 383.898438 90.511719 88.164062 386.246094 88.164062 751.171875 C 88.164062 1116.097656 385.011719 1411.832031 748.820312 1411.832031 C 1113.746094 1411.832031 1409.480469 1114.984375 1409.480469 751.171875 C 1409.480469 386.246094 1113.746094 90.511719 748.820312 90.511719 Z M 748.820312 90.511719 " fill-opacity="1" fill-rule="nonzero"/><path fill="#ffffff" d="M 1335.921875 1089.773438 L 164.078125 1089.773438 C 148.222656 1089.773438 135.25 1076.800781 135.25 1060.945312 L 135.25 458.445312 C 135.25 442.589844 148.222656 429.617188 164.078125 429.617188 L 1335.921875 429.617188 C 1351.777344 429.617188 1364.75 442.589844 1364.75 458.445312 L 1364.75 1060.945312 C 1364.75 1076.800781 1351.777344 1089.773438 1335.921875 1089.773438 Z M 1335.921875 1089.773438 " fill-opacity="1" fill-rule="nonzero"/><path fill="#ffffff" d="M 1325.832031 405.113281 C 1325.832031 634.292969 1325.832031 1078.242188 1325.832031 1078.242188 C 1325.832031 1078.242188 1219.171875 1053.738281 1036.113281 1050.855469 C 893.417969 1047.972656 742.070312 1086.890625 742.070312 1086.890625 C 742.070312 1086.890625 657.03125 1053.738281 478.296875 1047.972656 C 295.242188 1042.207031 174.167969 1082.566406 174.167969 1082.566406 C 174.167969 1082.566406 174.167969 634.292969 174.167969 405.113281 C 184.257812 402.230469 197.230469 397.90625 211.640625 395.023438 C 211.640625 386.375 211.640625 377.726562 211.640625 369.078125 C 269.296875 351.78125 361.546875 328.71875 476.855469 328.71875 C 596.492188 328.71875 691.625 350.339844 749.277344 369.078125 C 749.277344 369.078125 899.183594 328.71875 1015.933594 328.71875 C 1135.570312 328.71875 1230.703125 350.339844 1288.355469 369.078125 C 1288.355469 377.726562 1288.355469 386.375 1288.355469 395.023438 C 1302.769531 397.90625 1314.300781 402.230469 1325.832031 405.113281 Z M 1325.832031 405.113281 " fill-opacity="1" fill-rule="nonzero"/><path fill="#ceb99e" d="M 677.210938 775.550781 C 677.210938 782.757812 672.886719 785.640625 668.5625 778.433594 L 636.851562 740.957031 C 631.085938 735.191406 622.4375 733.75 616.671875 739.515625 L 577.753906 771.226562 C 571.988281 775.550781 566.222656 774.109375 566.222656 765.460938 L 566.222656 335.925781 C 566.222656 327.277344 571.988281 322.953125 580.636719 324.394531 L 665.679688 340.25 C 672.886719 341.691406 680.09375 348.898438 680.09375 357.546875 Z M 677.210938 775.550781 " fill-opacity="1" fill-rule="nonzero"/><path fill="#3e046b" d="M 1335.921875 422.410156 L 1333.039062 422.410156 L 1333.039062 405.113281 C 1333.039062 402.230469 1331.597656 399.347656 1327.273438 397.90625 C 1315.742188 395.023438 1305.652344 392.140625 1294.121094 389.257812 L 1294.121094 369.078125 C 1294.121094 366.195312 1292.679688 363.3125 1288.355469 361.871094 C 1201.875 334.484375 1109.625 321.511719 1015.933594 321.511719 C 955.398438 321.511719 886.210938 333.042969 838.644531 341.691406 C 785.3125 351.78125 760.808594 357.546875 750.71875 361.871094 C 729.097656 354.664062 706.039062 348.898438 682.976562 344.574219 C 680.09375 338.808594 672.886719 334.484375 667.121094 333.042969 L 582.078125 317.191406 C 576.3125 315.75 570.546875 317.191406 566.222656 321.511719 C 564.78125 322.953125 563.339844 324.394531 561.898438 325.835938 C 534.511719 322.953125 508.566406 321.511719 481.179688 321.511719 C 479.738281 321.511719 478.296875 321.511719 478.296875 321.511719 C 386.050781 321.511719 295.242188 335.925781 208.757812 361.871094 C 205.875 363.3125 204.433594 366.195312 204.433594 369.078125 L 204.433594 389.257812 C 192.90625 392.140625 182.816406 395.023438 171.285156 397.90625 C 168.402344 399.347656 166.960938 402.230469 166.960938 405.113281 L 166.960938 422.410156 L 164.078125 422.410156 C 143.898438 422.410156 128.042969 438.265625 128.042969 458.445312 L 128.042969 1060.945312 C 128.042969 1081.125 143.898438 1096.976562 164.078125 1096.976562 L 1335.921875 1096.976562 C 1356.101562 1096.976562 1371.957031 1081.125 1371.957031 1060.945312 L 1371.957031 458.445312 C 1371.957031 438.265625 1356.101562 422.410156 1335.921875 422.410156 Z M 1333.039062 429.617188 L 1333.039062 423.851562 C 1334.480469 425.292969 1334.480469 428.175781 1333.039062 429.617188 Z M 1292.679688 1050.855469 C 1294.121094 1049.414062 1295.5625 1047.972656 1295.5625 1045.089844 L 1295.5625 403.671875 C 1302.769531 405.113281 1311.417969 407.996094 1318.625 409.4375 L 1318.625 1068.152344 C 1289.796875 1062.386719 1187.460938 1045.089844 1036.113281 1042.207031 C 920.804688 1040.765625 799.726562 1065.269531 756.484375 1073.917969 L 756.484375 1058.0625 C 792.519531 1049.414062 907.832031 1023.46875 1017.375 1024.910156 C 1184.578125 1027.792969 1285.472656 1052.296875 1285.472656 1052.296875 C 1288.355469 1052.296875 1291.238281 1052.296875 1292.679688 1050.855469 Z M 1314.300781 1082.566406 L 792.519531 1082.566406 C 848.734375 1071.035156 945.308594 1055.179688 1037.554688 1056.621094 C 1186.019531 1059.503906 1285.472656 1076.800781 1314.300781 1082.566406 Z M 1015.933594 335.925781 C 1017.375 335.925781 1018.816406 335.925781 1018.816406 335.925781 C 1108.183594 335.925781 1196.109375 348.898438 1281.148438 374.84375 L 1281.148438 1036.441406 C 1252.320312 1030.675781 1158.632812 1013.378906 1018.816406 1010.496094 C 910.714844 1009.054688 798.285156 1033.558594 757.925781 1042.207031 L 757.925781 374.84375 C 757.925781 374.84375 757.925781 374.84375 757.925781 373.402344 C 783.871094 367.636719 913.597656 335.925781 1015.933594 335.925781 Z M 573.429688 335.925781 C 573.429688 334.484375 573.429688 333.042969 574.871094 331.601562 C 576.3125 330.160156 577.753906 330.160156 579.195312 330.160156 L 664.238281 346.015625 C 668.5625 347.457031 672.886719 351.78125 672.886719 356.105469 L 670.003906 769.785156 L 642.617188 736.632812 C 638.292969 730.867188 632.527344 729.425781 625.320312 729.425781 C 620.996094 729.425781 615.230469 730.867188 610.90625 733.75 L 571.988281 765.460938 L 571.988281 335.925781 Z M 218.847656 374.84375 C 302.449219 350.339844 388.933594 337.367188 478.296875 335.925781 C 505.683594 335.925781 533.070312 337.367188 560.457031 338.808594 L 560.457031 765.460938 C 560.457031 775.550781 566.222656 778.433594 567.664062 779.875 C 570.546875 781.316406 576.3125 782.757812 583.519531 776.992188 L 622.4375 745.28125 C 625.320312 742.398438 629.644531 743.839844 632.527344 746.722656 L 662.796875 784.199219 C 667.121094 789.964844 671.445312 789.964844 674.328125 789.964844 C 675.769531 789.964844 677.210938 789.964844 677.210938 789.964844 C 680.09375 788.523438 684.417969 785.640625 684.417969 776.992188 L 687.300781 361.871094 C 706.039062 366.195312 724.773438 370.519531 743.511719 376.285156 C 743.511719 376.285156 743.511719 376.285156 743.511719 377.726562 L 743.511719 1047.972656 C 727.65625 1042.207031 648.382812 1014.820312 497.035156 1010.496094 C 485.503906 1010.496094 473.972656 1010.496094 462.441406 1010.496094 C 337.042969 1010.496094 246.234375 1035 218.847656 1043.648438 Z M 181.375 410.878906 C 188.582031 407.996094 197.230469 406.554688 204.433594 405.113281 L 204.433594 1050.855469 C 204.433594 1053.738281 205.875 1055.179688 207.316406 1056.621094 C 208.757812 1058.0625 211.640625 1058.0625 214.523438 1058.0625 C 215.964844 1058.0625 329.835938 1017.703125 497.035156 1023.46875 C 659.914062 1029.234375 740.628906 1060.945312 740.628906 1062.386719 C 742.070312 1062.386719 742.070312 1062.386719 743.511719 1062.386719 L 743.511719 1081.125 C 729.097656 1075.359375 644.058594 1047.972656 479.738281 1042.207031 C 466.765625 1042.207031 455.238281 1042.207031 443.707031 1042.207031 C 309.65625 1042.207031 211.640625 1066.710938 181.375 1075.359375 Z M 704.597656 1082.566406 L 197.230469 1082.566406 C 240.46875 1071.035156 342.808594 1050.855469 478.296875 1055.179688 C 589.285156 1058.0625 664.238281 1072.476562 704.597656 1082.566406 Z M 142.457031 1060.945312 L 142.457031 458.445312 C 142.457031 446.914062 152.546875 436.824219 164.078125 436.824219 L 166.960938 436.824219 L 166.960938 1082.566406 C 166.960938 1082.566406 166.960938 1082.566406 166.960938 1084.007812 L 164.078125 1084.007812 C 151.105469 1082.566406 142.457031 1073.917969 142.457031 1060.945312 Z M 1357.542969 1060.945312 C 1357.542969 1072.476562 1347.453125 1082.566406 1335.921875 1082.566406 L 1331.597656 1082.566406 C 1333.039062 1081.125 1334.480469 1079.683594 1334.480469 1078.242188 L 1334.480469 436.824219 L 1337.363281 436.824219 C 1348.894531 436.824219 1358.984375 446.914062 1358.984375 458.445312 L 1358.984375 1060.945312 Z M 1357.542969 1060.945312 " fill-opacity="1" fill-rule="nonzero"/><g clip-path="url(#f518d9790f)"><path fill="#8b0529" d="M 1080.621094 425.5 C 1080.621094 427.390625 1080.53125 429.277344 1080.34375 431.160156 C 1080.160156 433.042969 1079.882812 434.910156 1079.511719 436.765625 C 1079.144531 438.621094 1078.683594 440.453125 1078.136719 442.265625 C 1077.585938 444.074219 1076.949219 445.851562 1076.226562 447.601562 C 1075.503906 449.347656 1074.695312 451.054688 1073.804688 452.722656 C 1072.910156 454.394531 1071.941406 456.011719 1070.890625 457.585938 C 1069.839844 459.160156 1068.714844 460.675781 1067.511719 462.136719 C 1066.3125 463.601562 1065.042969 465 1063.707031 466.339844 C 1062.367188 467.675781 1060.96875 468.945312 1059.507812 470.144531 C 1058.042969 471.34375 1056.527344 472.46875 1054.953125 473.519531 C 1053.382812 474.570312 1051.761719 475.542969 1050.09375 476.433594 C 1048.425781 477.328125 1046.71875 478.132812 1044.96875 478.859375 C 1043.222656 479.582031 1041.441406 480.21875 1039.632812 480.765625 C 1037.824219 481.316406 1035.988281 481.777344 1034.132812 482.144531 C 1032.28125 482.515625 1030.410156 482.789062 1028.527344 482.976562 C 1026.644531 483.160156 1024.757812 483.253906 1022.867188 483.253906 C 1020.976562 483.253906 1019.089844 483.160156 1017.207031 482.976562 C 1015.324219 482.789062 1013.453125 482.515625 1011.597656 482.144531 C 1009.746094 481.777344 1007.910156 481.316406 1006.101562 480.765625 C 1004.292969 480.21875 1002.511719 479.582031 1000.765625 478.859375 C 999.015625 478.132812 997.308594 477.328125 995.640625 476.433594 C 993.972656 475.542969 992.351562 474.570312 990.78125 473.519531 C 989.207031 472.46875 987.6875 471.34375 986.226562 470.144531 C 984.765625 468.945312 983.363281 467.675781 982.027344 466.339844 C 980.691406 465 979.421875 463.601562 978.222656 462.136719 C 977.019531 460.675781 975.894531 459.160156 974.84375 457.585938 C 973.792969 456.011719 972.824219 454.394531 971.929688 452.722656 C 971.039062 451.054688 970.230469 449.347656 969.507812 447.601562 C 968.785156 445.851562 968.148438 444.074219 967.597656 442.265625 C 967.050781 440.453125 966.589844 438.621094 966.222656 436.765625 C 965.851562 434.910156 965.574219 433.042969 965.390625 431.160156 C 965.203125 429.277344 965.109375 427.390625 965.109375 425.5 C 965.109375 423.605469 965.203125 421.71875 965.390625 419.835938 C 965.574219 417.957031 965.851562 416.085938 966.222656 414.230469 C 966.589844 412.375 967.050781 410.542969 967.597656 408.734375 C 968.148438 406.921875 968.785156 405.144531 969.507812 403.394531 C 970.230469 401.648438 971.039062 399.941406 971.929688 398.273438 C 972.824219 396.605469 973.792969 394.984375 974.84375 393.410156 C 975.894531 391.839844 977.019531 390.320312 978.222656 388.859375 C 979.421875 387.394531 980.691406 385.996094 982.027344 384.660156 C 983.363281 383.320312 984.765625 382.054688 986.226562 380.851562 C 987.6875 379.652344 989.207031 378.527344 990.78125 377.476562 C 992.351562 376.425781 993.972656 375.453125 995.640625 374.5625 C 997.308594 373.671875 999.015625 372.863281 1000.765625 372.140625 C 1002.511719 371.414062 1004.292969 370.777344 1006.101562 370.230469 C 1007.910156 369.679688 1009.746094 369.222656 1011.597656 368.851562 C 1013.453125 368.484375 1015.324219 368.207031 1017.207031 368.019531 C 1019.089844 367.835938 1020.976562 367.742188 1022.867188 367.742188 C 1024.757812 367.742188 1026.644531 367.835938 1028.527344 368.019531 C 1030.410156 368.207031 1032.28125 368.484375 1034.132812 368.851562 C 1035.988281 369.222656 1037.824219 369.679688 1039.632812 370.230469 C 1041.441406 370.777344 1043.222656 371.414062 1044.96875 372.140625 C 1046.71875 372.863281 1048.425781 373.671875 1050.09375 374.5625 C 1051.761719 375.453125 1053.382812 376.425781 1054.953125 377.476562 C 1056.527344 378.527344 1058.042969 379.652344 1059.507812 380.851562 C 1060.96875 382.054688 1062.367188 383.320312 1063.707031 384.660156 C 1065.042969 385.996094 1066.3125 387.394531 1067.511719 388.859375 C 1068.714844 390.320312 1069.839844 391.839844 1070.890625 393.410156 C 1071.941406 394.984375 1072.910156 396.605469 1073.804688 398.273438 C 1074.695312 399.941406 1075.503906 401.648438 1076.226562 403.394531 C 1076.949219 405.144531 1077.585938 406.921875 1078.136719 408.734375 C 1078.683594 410.542969 1079.144531 412.375 1079.511719 414.230469 C 1079.882812 416.085938 1080.160156 417.957031 1080.34375 419.835938 C 1080.53125 421.71875 1080.621094 423.605469 1080.621094 425.5 Z M 1080.621094 425.5 " fill-opacity="1" fill-rule="nonzero"/></g><path fill="#212121" d="M 1022.867188 477.746094 C 994.03125 477.746094 970.621094 454.332031 970.621094 425.5 C 970.621094 396.664062 994.03125 373.25 1022.867188 373.25 C 1051.703125 373.25 1075.113281 396.664062 1075.113281 425.5 C 1075.113281 454.332031 1051.703125 477.746094 1022.867188 477.746094 Z M 1022.867188 374.542969 C 994.722656 374.542969 971.910156 397.351562 971.910156 425.5 C 971.910156 453.644531 994.808594 476.453125 1022.867188 476.453125 C 1051.011719 476.453125 1073.824219 453.558594 1073.824219 425.5 C 1073.824219 397.351562 1051.011719 374.542969 1022.867188 374.542969 Z M 1022.867188 374.542969 " fill-opacity="1" fill-rule="nonzero"/><g clip-path="url(#6553613900)"><path fill="#8b0529" d="M 991.65625 893.636719 C 991.65625 895.527344 991.566406 897.414062 991.378906 899.296875 C 991.195312 901.179688 990.917969 903.046875 990.546875 904.902344 C 990.179688 906.757812 989.71875 908.589844 989.171875 910.402344 C 988.621094 912.210938 987.984375 913.988281 987.261719 915.738281 C 986.535156 917.484375 985.730469 919.191406 984.835938 920.863281 C 983.945312 922.53125 982.972656 924.148438 981.921875 925.722656 C 980.871094 927.296875 979.746094 928.8125 978.546875 930.273438 C 977.347656 931.738281 976.078125 933.136719 974.742188 934.476562 C 973.402344 935.8125 972.003906 937.082031 970.542969 938.28125 C 969.078125 939.480469 967.5625 940.605469 965.988281 941.65625 C 964.414062 942.707031 962.796875 943.679688 961.128906 944.570312 C 959.460938 945.464844 957.75 946.269531 956.003906 946.996094 C 954.257812 947.71875 952.476562 948.355469 950.667969 948.90625 C 948.855469 949.453125 947.023438 949.914062 945.167969 950.28125 C 943.3125 950.652344 941.445312 950.929688 939.5625 951.113281 C 937.679688 951.296875 935.792969 951.390625 933.902344 951.390625 C 932.011719 951.390625 930.121094 951.296875 928.242188 951.113281 C 926.359375 950.929688 924.488281 950.652344 922.632812 950.28125 C 920.777344 949.914062 918.945312 949.453125 917.136719 948.90625 C 915.324219 948.355469 913.546875 947.71875 911.800781 946.996094 C 910.050781 946.269531 908.34375 945.464844 906.675781 944.570312 C 905.007812 943.679688 903.386719 942.707031 901.8125 941.65625 C 900.242188 940.605469 898.722656 939.480469 897.261719 938.28125 C 895.800781 937.082031 894.398438 935.8125 893.0625 934.476562 C 891.722656 933.136719 890.457031 931.738281 889.253906 930.273438 C 888.054688 928.8125 886.929688 927.296875 885.878906 925.722656 C 884.828125 924.148438 883.855469 922.53125 882.964844 920.863281 C 882.074219 919.191406 881.265625 917.484375 880.542969 915.738281 C 879.816406 913.988281 879.179688 912.210938 878.632812 910.402344 C 878.082031 908.589844 877.625 906.757812 877.253906 904.902344 C 876.886719 903.046875 876.609375 901.179688 876.421875 899.296875 C 876.238281 897.414062 876.144531 895.527344 876.144531 893.636719 C 876.144531 891.742188 876.238281 889.855469 876.421875 887.972656 C 876.609375 886.09375 876.886719 884.222656 877.253906 882.367188 C 877.625 880.511719 878.082031 878.679688 878.632812 876.871094 C 879.179688 875.058594 879.816406 873.28125 880.542969 871.535156 C 881.265625 869.785156 882.074219 868.078125 882.964844 866.410156 C 883.855469 864.742188 884.828125 863.121094 885.878906 861.546875 C 886.929688 859.976562 888.054688 858.457031 889.253906 856.996094 C 890.457031 855.535156 891.722656 854.132812 893.0625 852.796875 C 894.398438 851.457031 895.800781 850.191406 897.261719 848.988281 C 898.722656 847.789062 900.242188 846.664062 901.8125 845.613281 C 903.386719 844.5625 905.007812 843.589844 906.675781 842.699219 C 908.34375 841.808594 910.050781 841 911.800781 840.277344 C 913.546875 839.550781 915.324219 838.914062 917.136719 838.367188 C 918.945312 837.816406 920.777344 837.359375 922.632812 836.988281 C 924.488281 836.621094 926.359375 836.34375 928.242188 836.15625 C 930.121094 835.972656 932.011719 835.878906 933.902344 835.878906 C 935.792969 835.878906 937.679688 835.972656 939.5625 836.15625 C 941.445312 836.34375 943.3125 836.621094 945.167969 836.988281 C 947.023438 837.359375 948.855469 837.816406 950.667969 838.367188 C 952.476562 838.914062 954.257812 839.550781 956.003906 840.277344 C 957.75 841 959.460938 841.808594 961.128906 842.699219 C 962.796875 843.589844 964.414062 844.5625 965.988281 845.613281 C 967.5625 846.664062 969.078125 847.789062 970.542969 848.988281 C 972.003906 850.191406 973.402344 851.457031 974.742188 852.796875 C 976.078125 854.132812 977.347656 855.535156 978.546875 856.996094 C 979.746094 858.457031 980.871094 859.976562 981.921875 861.546875 C 982.972656 863.121094 983.945312 864.742188 984.835938 866.410156 C 985.730469 868.078125 986.535156 869.785156 987.261719 871.535156 C 987.984375 873.28125 988.621094 875.058594 989.171875 876.871094 C 989.71875 878.679688 990.179688 880.511719 990.546875 882.367188 C 990.917969 884.222656 991.195312 886.09375 991.378906 887.972656 C 991.566406 889.855469 991.65625 891.742188 991.65625 893.636719 Z M 991.65625 893.636719 " fill-opacity="1" fill-rule="nonzero"/></g><path fill="#212121" d="M 933.902344 945.882812 C 905.066406 945.882812 881.652344 922.46875 881.652344 893.636719 C 881.652344 864.800781 905.066406 841.386719 933.902344 841.386719 C 962.734375 841.386719 986.148438 864.800781 986.148438 893.636719 C 986.148438 922.46875 962.734375 945.882812 933.902344 945.882812 Z M 933.902344 842.679688 C 905.753906 842.679688 882.945312 865.488281 882.945312 893.636719 C 882.945312 921.78125 905.839844 944.589844 933.902344 944.589844 C 962.046875 944.589844 984.855469 921.695312 984.855469 893.636719 C 984.855469 865.488281 962.046875 842.679688 933.902344 842.679688 Z M 933.902344 842.679688 " fill-opacity="1" fill-rule="nonzero"/><g clip-path="url(#7cee72a58b)"><path fill="#0038ff" d="M 923.425781 551.644531 C 923.425781 553.535156 923.335938 555.421875 923.148438 557.304688 C 922.964844 559.1875 922.6875 561.054688 922.316406 562.910156 C 921.949219 564.765625 921.488281 566.597656 920.941406 568.410156 C 920.390625 570.21875 919.753906 572 919.03125 573.746094 C 918.308594 575.492188 917.5 577.203125 916.605469 578.871094 C 915.714844 580.539062 914.746094 582.160156 913.695312 583.730469 C 912.640625 585.304688 911.515625 586.820312 910.316406 588.285156 C 909.117188 589.746094 907.847656 591.144531 906.511719 592.484375 C 905.171875 593.820312 903.773438 595.089844 902.3125 596.289062 C 900.847656 597.488281 899.332031 598.617188 897.757812 599.667969 C 896.1875 600.71875 894.566406 601.6875 892.898438 602.578125 C 891.230469 603.472656 889.519531 604.28125 887.773438 605.003906 C 886.027344 605.726562 884.246094 606.363281 882.4375 606.914062 C 880.625 607.460938 878.792969 607.921875 876.9375 608.289062 C 875.082031 608.660156 873.214844 608.9375 871.332031 609.121094 C 869.449219 609.308594 867.5625 609.398438 865.671875 609.398438 C 863.78125 609.398438 861.894531 609.308594 860.011719 609.121094 C 858.128906 608.9375 856.257812 608.660156 854.402344 608.289062 C 852.546875 607.921875 850.714844 607.460938 848.90625 606.914062 C 847.09375 606.363281 845.316406 605.726562 843.570312 605.003906 C 841.820312 604.28125 840.113281 603.472656 838.445312 602.578125 C 836.777344 601.6875 835.15625 600.71875 833.582031 599.667969 C 832.011719 598.617188 830.492188 597.488281 829.03125 596.289062 C 827.570312 595.089844 826.167969 593.820312 824.832031 592.484375 C 823.492188 591.144531 822.226562 589.746094 821.023438 588.285156 C 819.824219 586.820312 818.699219 585.304688 817.648438 583.730469 C 816.597656 582.160156 815.625 580.539062 814.734375 578.871094 C 813.84375 577.203125 813.035156 575.492188 812.3125 573.746094 C 811.589844 572 810.953125 570.21875 810.402344 568.410156 C 809.851562 566.597656 809.394531 564.765625 809.023438 562.910156 C 808.65625 561.054688 808.378906 559.1875 808.195312 557.304688 C 808.007812 555.421875 807.914062 553.535156 807.914062 551.644531 C 807.914062 549.753906 808.007812 547.867188 808.195312 545.984375 C 808.378906 544.101562 808.65625 542.230469 809.023438 540.375 C 809.394531 538.519531 809.851562 536.6875 810.402344 534.878906 C 810.953125 533.066406 811.589844 531.289062 812.3125 529.542969 C 813.035156 527.792969 813.84375 526.085938 814.734375 524.417969 C 815.625 522.75 816.597656 521.128906 817.648438 519.554688 C 818.699219 517.984375 819.824219 516.464844 821.023438 515.003906 C 822.226562 513.542969 823.492188 512.140625 824.832031 510.804688 C 826.167969 509.46875 827.570312 508.199219 829.03125 506.996094 C 830.492188 505.796875 832.011719 504.671875 833.582031 503.621094 C 835.15625 502.570312 836.777344 501.597656 838.445312 500.707031 C 840.113281 499.816406 841.820312 499.007812 843.570312 498.285156 C 845.316406 497.5625 847.09375 496.925781 848.90625 496.375 C 850.714844 495.824219 852.546875 495.367188 854.402344 494.996094 C 856.257812 494.628906 858.128906 494.351562 860.011719 494.167969 C 861.894531 493.980469 863.78125 493.886719 865.671875 493.886719 C 867.5625 493.886719 869.449219 493.980469 871.332031 494.167969 C 873.214844 494.351562 875.082031 494.628906 876.9375 494.996094 C 878.792969 495.367188 880.625 495.824219 882.4375 496.375 C 884.246094 496.925781 886.027344 497.5625 887.773438 498.285156 C 889.519531 499.007812 891.230469 499.816406 892.898438 500.707031 C 894.566406 501.597656 896.1875 502.570312 897.757812 503.621094 C 899.332031 504.671875 900.847656 505.796875 902.3125 506.996094 C 903.773438 508.199219 905.171875 509.46875 906.511719 510.804688 C 907.847656 512.140625 909.117188 513.542969 910.316406 515.003906 C 911.515625 516.464844 912.640625 517.984375 913.695312 519.554688 C 914.746094 521.128906 915.714844 522.75 916.605469 524.417969 C 917.5 526.085938 918.308594 527.792969 919.03125 529.542969 C 919.753906 531.289062 920.390625 533.066406 920.941406 534.878906 C 921.488281 536.6875 921.949219 538.519531 922.316406 540.375 C 922.6875 542.230469 922.964844 544.101562 923.148438 545.984375 C 923.335938 547.867188 923.425781 549.753906 923.425781 551.644531 Z M 923.425781 551.644531 " fill-opacity="1" fill-rule="nonzero"/></g><path fill="#212121" d="M 865.671875 603.890625 C 836.835938 603.890625 813.425781 580.480469 813.425781 551.644531 C 813.425781 522.808594 836.835938 499.398438 865.671875 499.398438 C 894.507812 499.398438 917.917969 522.808594 917.917969 551.644531 C 917.917969 580.480469 894.507812 603.890625 865.671875 603.890625 Z M 865.671875 500.6875 C 837.523438 500.6875 814.714844 523.496094 814.714844 551.644531 C 814.714844 579.789062 837.609375 602.601562 865.671875 602.601562 C 893.816406 602.601562 916.628906 579.703125 916.628906 551.644531 C 916.628906 523.496094 893.816406 500.6875 865.671875 500.6875 Z M 865.671875 500.6875 " fill-opacity="1" fill-rule="nonzero"/><g clip-path="url(#19b559c965)"><path fill="#0038ff" d="M 1237.820312 562.265625 C 1237.820312 564.160156 1237.726562 566.046875 1237.539062 567.929688 C 1237.355469 569.808594 1237.078125 571.679688 1236.710938 573.535156 C 1236.339844 575.390625 1235.882812 577.222656 1235.332031 579.03125 C 1234.78125 580.84375 1234.144531 582.621094 1233.421875 584.367188 C 1232.699219 586.117188 1231.890625 587.824219 1231 589.492188 C 1230.109375 591.160156 1229.136719 592.78125 1228.085938 594.355469 C 1227.035156 595.925781 1225.910156 597.445312 1224.707031 598.90625 C 1223.507812 600.367188 1222.238281 601.769531 1220.902344 603.105469 C 1219.566406 604.445312 1218.164062 605.710938 1216.703125 606.914062 C 1215.242188 608.113281 1213.722656 609.238281 1212.152344 610.289062 C 1210.578125 611.339844 1208.957031 612.3125 1207.289062 613.203125 C 1205.621094 614.09375 1203.914062 614.902344 1202.164062 615.625 C 1200.417969 616.351562 1198.640625 616.988281 1196.828125 617.535156 C 1195.019531 618.085938 1193.1875 618.542969 1191.332031 618.914062 C 1189.476562 619.28125 1187.605469 619.558594 1185.722656 619.746094 C 1183.839844 619.929688 1181.953125 620.023438 1180.0625 620.023438 C 1178.171875 620.023438 1176.285156 619.929688 1174.402344 619.746094 C 1172.519531 619.558594 1170.652344 619.28125 1168.796875 618.914062 C 1166.941406 618.542969 1165.109375 618.085938 1163.296875 617.535156 C 1161.488281 616.988281 1159.707031 616.351562 1157.960938 615.625 C 1156.214844 614.902344 1154.503906 614.09375 1152.835938 613.203125 C 1151.167969 612.3125 1149.546875 611.339844 1147.976562 610.289062 C 1146.402344 609.238281 1144.886719 608.113281 1143.421875 606.914062 C 1141.960938 605.710938 1140.5625 604.445312 1139.222656 603.105469 C 1137.886719 601.769531 1136.617188 600.367188 1135.417969 598.90625 C 1134.21875 597.445312 1133.089844 595.925781 1132.039062 594.355469 C 1130.988281 592.78125 1130.019531 591.160156 1129.125 589.492188 C 1128.234375 587.824219 1127.425781 586.117188 1126.703125 584.367188 C 1125.980469 582.621094 1125.34375 580.84375 1124.792969 579.03125 C 1124.246094 577.222656 1123.785156 575.390625 1123.417969 573.535156 C 1123.046875 571.679688 1122.769531 569.808594 1122.585938 567.929688 C 1122.398438 566.046875 1122.308594 564.160156 1122.308594 562.265625 C 1122.308594 560.375 1122.398438 558.488281 1122.585938 556.605469 C 1122.769531 554.722656 1123.046875 552.855469 1123.417969 551 C 1123.785156 549.144531 1124.246094 547.3125 1124.792969 545.5 C 1125.34375 543.691406 1125.980469 541.910156 1126.703125 540.164062 C 1127.425781 538.417969 1128.234375 536.710938 1129.125 535.039062 C 1130.019531 533.371094 1130.988281 531.753906 1132.039062 530.179688 C 1133.089844 528.605469 1134.21875 527.089844 1135.417969 525.625 C 1136.617188 524.164062 1137.886719 522.765625 1139.222656 521.425781 C 1140.5625 520.089844 1141.960938 518.820312 1143.421875 517.621094 C 1144.886719 516.421875 1146.402344 515.296875 1147.976562 514.246094 C 1149.546875 513.195312 1151.167969 512.222656 1152.835938 511.332031 C 1154.503906 510.4375 1156.214844 509.632812 1157.960938 508.90625 C 1159.707031 508.183594 1161.488281 507.546875 1163.296875 506.996094 C 1165.109375 506.449219 1166.941406 505.988281 1168.796875 505.621094 C 1170.652344 505.25 1172.519531 504.972656 1174.402344 504.789062 C 1176.285156 504.605469 1178.171875 504.511719 1180.0625 504.511719 C 1181.953125 504.511719 1183.839844 504.605469 1185.722656 504.789062 C 1187.605469 504.972656 1189.476562 505.25 1191.332031 505.621094 C 1193.1875 505.988281 1195.019531 506.449219 1196.828125 506.996094 C 1198.640625 507.546875 1200.417969 508.183594 1202.164062 508.90625 C 1203.914062 509.632812 1205.621094 510.4375 1207.289062 511.332031 C 1208.957031 512.222656 1210.578125 513.195312 1212.152344 514.246094 C 1213.722656 515.296875 1215.242188 516.421875 1216.703125 517.621094 C 1218.164062 518.820312 1219.566406 520.089844 1220.902344 521.425781 C 1222.238281 522.765625 1223.507812 524.164062 1224.707031 525.625 C 1225.910156 527.089844 1227.035156 528.605469 1228.085938 530.179688 C 1229.136719 531.753906 1230.109375 533.371094 1231 535.039062 C 1231.890625 536.710938 1232.699219 538.417969 1233.421875 540.164062 C 1234.144531 541.910156 1234.78125 543.691406 1235.332031 545.5 C 1235.882812 547.3125 1236.339844 549.144531 1236.710938 551 C 1237.078125 552.855469 1237.355469 554.722656 1237.539062 556.605469 C 1237.726562 558.488281 1237.820312 560.375 1237.820312 562.265625 Z M 1237.820312 562.265625 " fill-opacity="1" fill-rule="nonzero"/></g><path fill="#212121" d="M 1180.0625 614.515625 C 1151.226562 614.515625 1127.816406 591.101562 1127.816406 562.265625 C 1127.816406 533.433594 1151.226562 510.019531 1180.0625 510.019531 C 1208.898438 510.019531 1232.308594 533.433594 1232.308594 562.265625 C 1232.308594 591.101562 1208.898438 614.515625 1180.0625 614.515625 Z M 1180.0625 511.3125 C 1151.917969 511.3125 1129.105469 534.121094 1129.105469 562.265625 C 1129.105469 590.414062 1152.003906 613.222656 1180.0625 613.222656 C 1208.210938 613.222656 1231.019531 590.328125 1231.019531 562.265625 C 1231.019531 534.121094 1208.210938 511.3125 1180.0625 511.3125 Z M 1180.0625 511.3125 " fill-opacity="1" fill-rule="nonzero"/><g clip-path="url(#b399cc3a28)"><path fill="#0038ff" d="M 1237.820312 732.253906 C 1237.820312 734.144531 1237.726562 736.03125 1237.539062 737.914062 C 1237.355469 739.796875 1237.078125 741.664062 1236.710938 743.519531 C 1236.339844 745.375 1235.882812 747.207031 1235.332031 749.019531 C 1234.78125 750.828125 1234.144531 752.609375 1233.421875 754.355469 C 1232.699219 756.101562 1231.890625 757.8125 1231 759.480469 C 1230.109375 761.148438 1229.136719 762.769531 1228.085938 764.339844 C 1227.035156 765.914062 1225.910156 767.429688 1224.707031 768.894531 C 1223.507812 770.355469 1222.238281 771.753906 1220.902344 773.09375 C 1219.566406 774.429688 1218.164062 775.699219 1216.703125 776.898438 C 1215.242188 778.097656 1213.722656 779.222656 1212.152344 780.273438 C 1210.578125 781.328125 1208.957031 782.296875 1207.289062 783.1875 C 1205.621094 784.082031 1203.914062 784.886719 1202.164062 785.613281 C 1200.417969 786.335938 1198.640625 786.972656 1196.828125 787.523438 C 1195.019531 788.070312 1193.1875 788.53125 1191.332031 788.898438 C 1189.476562 789.269531 1187.605469 789.546875 1185.722656 789.730469 C 1183.839844 789.917969 1181.953125 790.007812 1180.0625 790.007812 C 1178.171875 790.007812 1176.285156 789.917969 1174.402344 789.730469 C 1172.519531 789.546875 1170.652344 789.269531 1168.796875 788.898438 C 1166.941406 788.53125 1165.109375 788.070312 1163.296875 787.523438 C 1161.488281 786.972656 1159.707031 786.335938 1157.960938 785.613281 C 1156.214844 784.886719 1154.503906 784.082031 1152.835938 783.1875 C 1151.167969 782.296875 1149.546875 781.328125 1147.976562 780.273438 C 1146.402344 779.222656 1144.886719 778.097656 1143.421875 776.898438 C 1141.960938 775.699219 1140.5625 774.429688 1139.222656 773.09375 C 1137.886719 771.753906 1136.617188 770.355469 1135.417969 768.894531 C 1134.21875 767.429688 1133.089844 765.914062 1132.039062 764.339844 C 1130.988281 762.769531 1130.019531 761.148438 1129.125 759.480469 C 1128.234375 757.8125 1127.425781 756.101562 1126.703125 754.355469 C 1125.980469 752.609375 1125.34375 750.828125 1124.792969 749.019531 C 1124.246094 747.207031 1123.785156 745.375 1123.417969 743.519531 C 1123.046875 741.664062 1122.769531 739.796875 1122.585938 737.914062 C 1122.398438 736.03125 1122.308594 734.144531 1122.308594 732.253906 C 1122.308594 730.363281 1122.398438 728.472656 1122.585938 726.59375 C 1122.769531 724.710938 1123.046875 722.839844 1123.417969 720.984375 C 1123.785156 719.128906 1124.246094 717.296875 1124.792969 715.488281 C 1125.34375 713.675781 1125.980469 711.898438 1126.703125 710.152344 C 1127.425781 708.402344 1128.234375 706.695312 1129.125 705.027344 C 1130.019531 703.359375 1130.988281 701.738281 1132.039062 700.164062 C 1133.089844 698.59375 1134.21875 697.074219 1135.417969 695.613281 C 1136.617188 694.152344 1137.886719 692.75 1139.222656 691.414062 C 1140.5625 690.074219 1141.960938 688.808594 1143.421875 687.605469 C 1144.886719 686.40625 1146.402344 685.28125 1147.976562 684.230469 C 1149.546875 683.179688 1151.167969 682.207031 1152.835938 681.316406 C 1154.503906 680.425781 1156.214844 679.617188 1157.960938 678.894531 C 1159.707031 678.167969 1161.488281 677.535156 1163.296875 676.984375 C 1165.109375 676.433594 1166.941406 675.976562 1168.796875 675.605469 C 1170.652344 675.238281 1172.519531 674.960938 1174.402344 674.773438 C 1176.285156 674.589844 1178.171875 674.496094 1180.0625 674.496094 C 1181.953125 674.496094 1183.839844 674.589844 1185.722656 674.773438 C 1187.605469 674.960938 1189.476562 675.238281 1191.332031 675.605469 C 1193.1875 675.976562 1195.019531 676.433594 1196.828125 676.984375 C 1198.640625 677.535156 1200.417969 678.167969 1202.164062 678.894531 C 1203.914062 679.617188 1205.621094 680.425781 1207.289062 681.316406 C 1208.957031 682.207031 1210.578125 683.179688 1212.152344 684.230469 C 1213.722656 685.28125 1215.242188 686.40625 1216.703125 687.605469 C 1218.164062 688.808594 1219.566406 690.074219 1220.902344 691.414062 C 1222.238281 692.75 1223.507812 694.152344 1224.707031 695.613281 C 1225.910156 697.074219 1227.035156 698.59375 1228.085938 700.164062 C 1229.136719 701.738281 1230.109375 703.359375 1231 705.027344 C 1231.890625 706.695312 1232.699219 708.402344 1233.421875 710.152344 C 1234.144531 711.898438 1234.78125 713.675781 1235.332031 715.488281 C 1235.882812 717.296875 1236.339844 719.128906 1236.710938 720.984375 C 1237.078125 722.839844 1237.355469 724.710938 1237.539062 726.59375 C 1237.726562 728.472656 1237.820312 730.363281 1237.820312 732.253906 Z M 1237.820312 732.253906 " fill-opacity="1" fill-rule="nonzero"/></g><path fill="#212121" d="M 1180.0625 784.5 C 1151.226562 784.5 1127.816406 761.089844 1127.816406 732.253906 C 1127.816406 703.417969 1151.226562 680.007812 1180.0625 680.007812 C 1208.898438 680.007812 1232.308594 703.417969 1232.308594 732.253906 C 1232.308594 761.089844 1208.898438 784.5 1180.0625 784.5 Z M 1180.0625 681.296875 C 1151.917969 681.296875 1129.105469 704.105469 1129.105469 732.253906 C 1129.105469 760.398438 1152.003906 783.210938 1180.0625 783.210938 C 1208.210938 783.210938 1231.019531 760.3125 1231.019531 732.253906 C 1231.019531 704.105469 1208.210938 681.296875 1180.0625 681.296875 Z M 1180.0625 681.296875 " fill-opacity="1" fill-rule="nonzero"/><g clip-path="url(#d4ea8f6266)"><path fill="#0038ff" d="M 1164.941406 898.945312 C 1164.941406 900.839844 1164.847656 902.726562 1164.664062 904.609375 C 1164.476562 906.492188 1164.199219 908.359375 1163.832031 910.214844 C 1163.460938 912.070312 1163.003906 913.902344 1162.453125 915.710938 C 1161.90625 917.523438 1161.269531 919.300781 1160.542969 921.050781 C 1159.820312 922.796875 1159.011719 924.503906 1158.121094 926.171875 C 1157.230469 927.839844 1156.257812 929.460938 1155.207031 931.035156 C 1154.15625 932.605469 1153.03125 934.125 1151.832031 935.585938 C 1150.632812 937.050781 1149.363281 938.449219 1148.023438 939.785156 C 1146.6875 941.125 1145.289062 942.394531 1143.824219 943.59375 C 1142.363281 944.792969 1140.84375 945.917969 1139.273438 946.96875 C 1137.699219 948.019531 1136.078125 948.992188 1134.410156 949.882812 C 1132.742188 950.773438 1131.035156 951.582031 1129.289062 952.304688 C 1127.539062 953.03125 1125.761719 953.667969 1123.949219 954.214844 C 1122.140625 954.765625 1120.308594 955.222656 1118.453125 955.59375 C 1116.597656 955.960938 1114.730469 956.238281 1112.847656 956.425781 C 1110.964844 956.609375 1109.078125 956.703125 1107.183594 956.703125 C 1105.292969 956.703125 1103.40625 956.609375 1101.523438 956.425781 C 1099.640625 956.238281 1097.773438 955.960938 1095.917969 955.59375 C 1094.0625 955.222656 1092.230469 954.765625 1090.417969 954.214844 C 1088.609375 953.667969 1086.832031 953.03125 1085.082031 952.304688 C 1083.335938 951.582031 1081.628906 950.773438 1079.960938 949.882812 C 1078.292969 948.992188 1076.671875 948.019531 1075.097656 946.96875 C 1073.523438 945.917969 1072.007812 944.792969 1070.546875 943.59375 C 1069.082031 942.394531 1067.683594 941.125 1066.347656 939.785156 C 1065.007812 938.449219 1063.738281 937.050781 1062.539062 935.585938 C 1061.339844 934.125 1060.214844 932.605469 1059.164062 931.035156 C 1058.113281 929.460938 1057.140625 927.839844 1056.25 926.171875 C 1055.359375 924.503906 1054.550781 922.796875 1053.824219 921.050781 C 1053.101562 919.300781 1052.464844 917.523438 1051.917969 915.710938 C 1051.367188 913.902344 1050.910156 912.070312 1050.539062 910.214844 C 1050.171875 908.359375 1049.894531 906.492188 1049.707031 904.609375 C 1049.523438 902.726562 1049.429688 900.839844 1049.429688 898.945312 C 1049.429688 897.054688 1049.523438 895.167969 1049.707031 893.285156 C 1049.894531 891.402344 1050.171875 889.535156 1050.539062 887.679688 C 1050.910156 885.824219 1051.367188 883.992188 1051.917969 882.179688 C 1052.464844 880.371094 1053.101562 878.59375 1053.824219 876.84375 C 1054.550781 875.097656 1055.359375 873.390625 1056.25 871.722656 C 1057.140625 870.054688 1058.113281 868.433594 1059.164062 866.859375 C 1060.214844 865.285156 1061.339844 863.769531 1062.539062 862.308594 C 1063.738281 860.84375 1065.007812 859.445312 1066.347656 858.109375 C 1067.683594 856.769531 1069.082031 855.5 1070.546875 854.300781 C 1072.007812 853.101562 1073.523438 851.976562 1075.097656 850.925781 C 1076.671875 849.875 1078.292969 848.902344 1079.960938 848.011719 C 1081.628906 847.121094 1083.335938 846.3125 1085.082031 845.585938 C 1086.832031 844.863281 1088.609375 844.226562 1090.417969 843.679688 C 1092.230469 843.128906 1094.0625 842.671875 1095.917969 842.300781 C 1097.773438 841.933594 1099.640625 841.65625 1101.523438 841.46875 C 1103.40625 841.285156 1105.292969 841.191406 1107.183594 841.191406 C 1109.078125 841.191406 1110.964844 841.285156 1112.847656 841.46875 C 1114.730469 841.65625 1116.597656 841.933594 1118.453125 842.300781 C 1120.308594 842.671875 1122.140625 843.128906 1123.949219 843.679688 C 1125.761719 844.226562 1127.539062 844.863281 1129.289062 845.585938 C 1131.035156 846.3125 1132.742188 847.121094 1134.410156 848.011719 C 1136.078125 848.902344 1137.699219 849.875 1139.273438 850.925781 C 1140.84375 851.976562 1142.363281 853.101562 1143.824219 854.300781 C 1145.289062 855.5 1146.6875 856.769531 1148.023438 858.109375 C 1149.363281 859.445312 1150.632812 860.84375 1151.832031 862.308594 C 1153.03125 863.769531 1154.15625 865.285156 1155.207031 866.859375 C 1156.257812 868.433594 1157.230469 870.054688 1158.121094 871.722656 C 1159.011719 873.390625 1159.820312 875.097656 1160.542969 876.84375 C 1161.269531 878.59375 1161.90625 880.371094 1162.453125 882.179688 C 1163.003906 883.992188 1163.460938 885.824219 1163.832031 887.679688 C 1164.199219 889.535156 1164.476562 891.402344 1164.664062 893.285156 C 1164.847656 895.167969 1164.941406 897.054688 1164.941406 898.945312 Z M 1164.941406 898.945312 " fill-opacity="1" fill-rule="nonzero"/></g><path fill="#212121" d="M 1107.183594 951.195312 C 1078.351562 951.195312 1054.9375 927.78125 1054.9375 898.945312 C 1054.9375 870.113281 1078.351562 846.699219 1107.183594 846.699219 C 1136.019531 846.699219 1159.433594 870.113281 1159.433594 898.945312 C 1159.433594 927.78125 1136.019531 951.195312 1107.183594 951.195312 Z M 1107.183594 847.992188 C 1079.039062 847.992188 1056.230469 870.800781 1056.230469 898.945312 C 1056.230469 927.09375 1079.125 949.902344 1107.183594 949.902344 C 1135.332031 949.902344 1158.140625 927.007812 1158.140625 898.945312 C 1158.140625 870.800781 1135.332031 847.992188 1107.183594 847.992188 Z M 1107.183594 847.992188 " fill-opacity="1" fill-rule="nonzero"/><g clip-path="url(#1dcd91eb04)"><path fill="#0038ff" d="M 923.425781 732.253906 C 923.425781 734.144531 923.335938 736.03125 923.148438 737.914062 C 922.964844 739.796875 922.6875 741.664062 922.316406 743.519531 C 921.949219 745.375 921.488281 747.207031 920.941406 749.019531 C 920.390625 750.828125 919.753906 752.609375 919.03125 754.355469 C 918.308594 756.101562 917.5 757.8125 916.605469 759.480469 C 915.714844 761.148438 914.746094 762.769531 913.695312 764.339844 C 912.640625 765.914062 911.515625 767.429688 910.316406 768.894531 C 909.117188 770.355469 907.847656 771.753906 906.511719 773.09375 C 905.171875 774.429688 903.773438 775.699219 902.3125 776.898438 C 900.847656 778.097656 899.332031 779.222656 897.757812 780.273438 C 896.1875 781.328125 894.566406 782.296875 892.898438 783.1875 C 891.230469 784.082031 889.519531 784.886719 887.773438 785.613281 C 886.027344 786.335938 884.246094 786.972656 882.4375 787.523438 C 880.625 788.070312 878.792969 788.53125 876.9375 788.898438 C 875.082031 789.269531 873.214844 789.546875 871.332031 789.730469 C 869.449219 789.917969 867.5625 790.007812 865.671875 790.007812 C 863.78125 790.007812 861.894531 789.917969 860.011719 789.730469 C 858.128906 789.546875 856.257812 789.269531 854.402344 788.898438 C 852.546875 788.53125 850.714844 788.070312 848.90625 787.523438 C 847.09375 786.972656 845.316406 786.335938 843.570312 785.613281 C 841.820312 784.886719 840.113281 784.082031 838.445312 783.1875 C 836.777344 782.296875 835.15625 781.328125 833.582031 780.273438 C 832.011719 779.222656 830.492188 778.097656 829.03125 776.898438 C 827.570312 775.699219 826.167969 774.429688 824.832031 773.09375 C 823.492188 771.753906 822.226562 770.355469 821.023438 768.894531 C 819.824219 767.429688 818.699219 765.914062 817.648438 764.339844 C 816.597656 762.769531 815.625 761.148438 814.734375 759.480469 C 813.84375 757.8125 813.035156 756.101562 812.3125 754.355469 C 811.589844 752.609375 810.953125 750.828125 810.402344 749.019531 C 809.851562 747.207031 809.394531 745.375 809.023438 743.519531 C 808.65625 741.664062 808.378906 739.796875 808.195312 737.914062 C 808.007812 736.03125 807.914062 734.144531 807.914062 732.253906 C 807.914062 730.363281 808.007812 728.472656 808.195312 726.59375 C 808.378906 724.710938 808.65625 722.839844 809.023438 720.984375 C 809.394531 719.128906 809.851562 717.296875 810.402344 715.488281 C 810.953125 713.675781 811.589844 711.898438 812.3125 710.152344 C 813.035156 708.402344 813.84375 706.695312 814.734375 705.027344 C 815.625 703.359375 816.597656 701.738281 817.648438 700.164062 C 818.699219 698.59375 819.824219 697.074219 821.023438 695.613281 C 822.226562 694.152344 823.492188 692.75 824.832031 691.414062 C 826.167969 690.074219 827.570312 688.808594 829.03125 687.605469 C 830.492188 686.40625 832.011719 685.28125 833.582031 684.230469 C 835.15625 683.179688 836.777344 682.207031 838.445312 681.316406 C 840.113281 680.425781 841.820312 679.617188 843.570312 678.894531 C 845.316406 678.167969 847.09375 677.535156 848.90625 676.984375 C 850.714844 676.433594 852.546875 675.976562 854.402344 675.605469 C 856.257812 675.238281 858.128906 674.960938 860.011719 674.773438 C 861.894531 674.589844 863.78125 674.496094 865.671875 674.496094 C 867.5625 674.496094 869.449219 674.589844 871.332031 674.773438 C 873.214844 674.960938 875.082031 675.238281 876.9375 675.605469 C 878.792969 675.976562 880.625 676.433594 882.4375 676.984375 C 884.246094 677.535156 886.027344 678.167969 887.773438 678.894531 C 889.519531 679.617188 891.230469 680.425781 892.898438 681.316406 C 894.566406 682.207031 896.1875 683.179688 897.757812 684.230469 C 899.332031 685.28125 900.847656 686.40625 902.3125 687.605469 C 903.773438 688.808594 905.171875 690.074219 906.511719 691.414062 C 907.847656 692.75 909.117188 694.152344 910.316406 695.613281 C 911.515625 697.074219 912.640625 698.59375 913.695312 700.164062 C 914.746094 701.738281 915.714844 703.359375 916.605469 705.027344 C 917.5 706.695312 918.308594 708.402344 919.03125 710.152344 C 919.753906 711.898438 920.390625 713.675781 920.941406 715.488281 C 921.488281 717.296875 921.949219 719.128906 922.316406 720.984375 C 922.6875 722.839844 922.964844 724.710938 923.148438 726.59375 C 923.335938 728.472656 923.425781 730.363281 923.425781 732.253906 Z M 923.425781 732.253906 " fill-opacity="1" fill-rule="nonzero"/></g><path fill="#212121" d="M 865.671875 784.5 C 836.835938 784.5 813.425781 761.089844 813.425781 732.253906 C 813.425781 703.417969 836.835938 680.007812 865.671875 680.007812 C 894.507812 680.007812 917.917969 703.417969 917.917969 732.253906 C 917.917969 761.089844 894.507812 784.5 865.671875 784.5 Z M 865.671875 681.296875 C 837.523438 681.296875 814.714844 704.105469 814.714844 732.253906 C 814.714844 760.398438 837.609375 783.210938 865.671875 783.210938 C 893.816406 783.210938 916.628906 760.3125 916.628906 732.253906 C 916.628906 704.105469 893.816406 681.296875 865.671875 681.296875 Z M 865.671875 681.296875 " fill-opacity="1" fill-rule="nonzero"/></svg>